<svg width="79" height="72" viewBox="0 0 79 72" fill="none" xmlns="http://www.w3.org/2000/svg">
<mask id="path-1-outside-1_5114_2243" maskUnits="userSpaceOnUse" x="-0.499512" y="21.0485" width="39" height="52" fill="black">
<rect fill="white" x="-0.499512" y="21.0485" width="39" height="52"/>
<path d="M0.749651 61.7064C1.04503 61.5704 1.233 61.4344 1.44782 61.1625C1.6895 60.8634 1.93119 60.5914 2.19972 60.3195C2.68307 59.8028 3.22012 59.3404 3.70348 58.8509C3.94515 58.6062 4.18683 58.3886 4.3748 58.1167C4.56277 57.8175 4.75075 57.5184 4.96557 57.2464C5.34151 56.6482 5.74431 56.0499 6.17395 55.506C6.97954 54.4726 8.40275 54.3638 9.3426 53.5479C10.175 52.8137 10.6584 51.7803 11.0343 50.7741C11.2492 50.1758 11.4908 49.6047 11.6788 48.9792C11.8936 48.2994 12.0279 47.5923 12.1085 46.8852C12.189 46.1782 12.2159 45.4711 12.2427 44.764C12.2696 44.057 12.565 43.4043 12.5918 42.6972C12.6187 41.9902 12.4038 41.3375 12.377 40.6304C12.3501 40.3041 12.189 40.0049 12.0816 39.6786C11.9742 39.3251 11.8936 38.9443 11.8668 38.5908C11.8399 38.2373 11.7594 37.9109 11.7057 37.5846C11.6251 37.1767 11.5714 36.7687 11.5177 36.388C11.464 36.0345 11.3834 35.681 11.276 35.3274C11.1686 34.9739 11.0075 34.6475 10.9001 34.294C9.93336 31.5473 10.363 28.5559 10.4167 25.7276C10.4436 25.0478 10.4167 24.3679 10.3899 23.6608C10.3899 23.5249 10.363 23.3889 10.3362 23.2801C10.2825 23.1441 10.2019 22.981 10.175 22.845C10.175 22.573 10.4973 22.4643 10.739 22.4099C12.0816 22.1923 13.0215 23.4161 13.4511 24.5311C13.8807 25.7276 13.9345 27.033 14.015 28.284C14.0419 28.6103 14.0419 28.9366 14.0956 29.263C14.1493 29.6437 14.2298 29.9972 14.3104 30.3508C14.3641 30.6771 14.4447 31.0034 14.4447 31.3026C14.4715 31.6289 14.4984 31.9281 14.6326 32.2544C14.7938 32.5807 14.9817 32.9071 15.116 33.2334C15.2771 33.5598 15.4114 33.9133 15.5456 34.2396C15.8142 34.9195 16.0559 35.6266 16.2975 36.3064C16.4049 36.66 16.5123 37.0135 16.6466 37.3398C16.7003 37.4486 16.7809 37.5574 16.8346 37.6662C16.942 37.8293 17.0226 37.9925 17.1031 38.1829C17.2374 38.482 17.3716 38.7812 17.4253 39.1075C17.5059 39.5154 17.5328 39.9233 17.5328 40.3313C17.5328 40.6848 17.5059 41.0383 17.5059 41.4191C17.5059 41.7454 17.5865 42.0445 17.667 42.3709C17.7476 42.67 17.9356 42.9692 18.0698 43.2411C18.2041 43.5403 18.3652 43.8122 18.5263 44.1113C19.1439 45.2535 19.8153 46.3957 20.3792 47.5651C20.9431 48.7345 21.3996 49.9854 21.5607 51.2908C21.7487 52.7865 21.5876 54.2822 21.0774 55.6963C20.9699 56.0227 20.8357 56.349 20.6746 56.6482C20.4866 56.9745 20.2718 57.3008 20.1106 57.6272C19.9495 57.9263 19.7884 58.2255 19.681 58.5246C19.5467 58.8781 19.3319 59.1773 19.1171 59.5036C18.6606 60.1291 18.1504 60.7002 17.667 61.2985C17.1568 61.8968 16.6466 62.495 16.1364 63.0933C15.1697 64.2083 14.3373 65.4593 13.2094 66.3839C12.6724 66.819 12.1353 67.227 11.5983 67.6349C11.0343 68.07 10.551 68.5867 10.0676 69.1306C9.61113 69.6745 9.18149 70.2456 8.64443 70.7351C8.18793 71.1702 7.59715 71.6325 6.95268 71.7413C6.81842 71.7685 6.71101 71.7685 6.57675 71.7957C6.52304 71.8229 6.41563 71.8501 6.36193 71.7957C6.17396 71.6325 6.41562 71.0342 6.46933 70.8711C6.71101 70.2456 7.16751 69.7017 7.59716 69.2122C9.50372 67.0094 11.8131 65.2689 13.9882 63.3653C15.116 62.3863 16.3781 61.5432 17.667 60.809C18.956 60.0747 20.3255 59.5036 21.5607 58.6606C22.2052 58.2255 22.8228 57.7631 23.4404 57.2736C24.0043 56.8385 24.5145 56.3218 24.9979 55.8051C25.4812 55.2612 25.9377 54.7173 26.3942 54.1734C26.8507 53.6023 27.3878 53.0856 27.898 52.5689C28.9721 51.4811 29.9925 50.3118 31.0667 49.224C31.5769 48.7073 32.1139 48.2178 32.5973 47.6739C32.7852 47.4563 33.0001 47.2388 33.1612 46.9668C33.3223 46.6949 33.4297 46.3685 33.564 46.0694C34.1547 44.764 34.9066 43.5403 35.578 42.2621C35.9002 41.691 36.1419 41.0655 36.4641 40.4944C36.7326 39.9777 37.0817 39.5154 37.2697 38.9715C37.5382 38.0741 36.9475 37.0407 36.0345 36.8231C35.2826 36.6328 34.5575 37.0679 33.9668 37.503C33.2686 38.0197 32.6778 38.6724 32.1139 39.3523C31.8454 39.6514 31.6037 39.9777 31.4157 40.3041C31.0398 40.9296 30.6907 41.5822 30.3416 42.2077C29.9925 42.806 29.6166 43.4859 29.0527 43.9482C28.7842 44.1657 28.4351 44.3017 28.1128 44.4649C27.7906 44.6009 27.4684 44.764 27.1461 44.9272C27.1998 44.9272 27.2535 44.9272 27.3072 44.9272C27.2535 44.9 27.173 44.8728 27.1193 44.8184C27.173 44.8728 27.1998 44.9272 27.2535 44.9816C27.1461 44.5465 27.1461 44.0842 27.0924 43.649C27.0656 43.5131 26.7433 43.3771 26.7702 43.5675C26.8239 43.8938 26.8239 44.2473 26.8776 44.6009C26.9044 44.8728 26.9313 45.0088 27.1998 45.1447C27.4415 45.2535 27.6295 45.0904 27.8443 44.9816C28.1934 44.8184 28.5425 44.6552 28.8647 44.4921C29.536 44.1657 29.9657 43.5403 30.3685 42.9148C30.7713 42.2621 31.1204 41.5822 31.4963 40.9296C31.9528 40.1409 32.5167 39.4338 33.1343 38.754C33.7251 38.1285 34.4501 37.4214 35.3094 37.1495C35.6585 37.0407 36.0344 37.0135 36.3567 37.2039C36.84 37.4758 37.1086 38.0741 37.0012 38.618C36.8937 39.2435 36.4641 39.7602 36.1687 40.3041C35.8465 40.9024 35.578 41.5278 35.2289 42.1533C34.5575 43.4043 33.8057 44.6552 33.2149 45.9606C33.0806 46.2597 32.9732 46.5589 32.8121 46.8308C32.6241 47.1028 32.4093 47.3203 32.1945 47.5651C31.9528 47.8642 31.6574 48.109 31.3889 48.3809C31.1204 48.6529 30.8518 48.9248 30.5833 49.1968C29.4823 50.3118 28.4619 51.4811 27.3609 52.5961C27.0924 52.8681 26.8507 53.1128 26.5822 53.3848C26.3137 53.6567 26.072 53.9831 25.8303 54.2822C25.347 54.8533 24.8636 55.4244 24.3534 55.9683C24.0849 56.2402 23.8163 56.5394 23.521 56.7841C23.1987 57.0289 22.8765 57.2736 22.5811 57.4912C21.9366 57.9535 21.2922 58.443 20.6208 58.8237C19.2782 59.5852 17.855 60.2107 16.5661 61.0537C15.9484 61.4616 15.304 61.8696 14.6863 62.3047C14.0687 62.767 13.5317 63.2837 12.9409 63.7732C11.8399 64.725 10.7121 65.6496 9.63798 66.6287C8.59071 67.5805 7.51659 68.6139 6.68415 69.7833C6.49618 70.028 6.33507 70.3 6.22766 70.5991C6.12025 70.8711 5.98597 71.1974 6.01283 71.4965C6.03968 71.9317 6.41563 72.122 6.79157 72.0404C7.03325 71.986 7.27493 71.986 7.5166 71.8773C7.81199 71.7685 8.10737 71.5781 8.3759 71.3878C8.93981 70.9798 9.42316 70.4359 9.87966 69.892C10.363 69.3209 10.8195 68.7227 11.3834 68.2332C11.9205 67.7436 12.5113 67.3357 13.0752 66.9006C13.6122 66.4655 14.1493 66.0032 14.6058 65.4865C15.116 64.8882 15.5725 64.2627 16.0827 63.6644C17.1031 62.4407 18.1772 61.2985 19.1708 60.0475C19.3856 59.7484 19.6004 59.4492 19.7884 59.1501C19.9764 58.8509 20.0838 58.5246 20.2449 58.1983C20.5671 57.5728 20.9968 57.0017 21.2653 56.349C21.8292 54.9621 22.0978 53.4664 21.9903 51.9707C21.8024 49.224 20.406 46.8852 19.1171 44.5465C18.7949 43.9482 18.4458 43.3227 18.1504 42.7244C17.8281 42.0445 17.855 41.3375 17.8818 40.576C17.8818 40.1953 17.8818 39.8146 17.8281 39.461C17.7744 39.0803 17.6402 38.754 17.5059 38.4276C17.3985 38.1557 17.2911 37.8565 17.13 37.6118C16.9151 37.2854 16.8346 36.9319 16.7003 36.5784C16.4586 35.8441 16.217 35.1371 15.9484 34.4028C15.6799 33.6685 15.3308 32.9887 14.9817 32.3088C14.8206 31.9825 14.7938 31.7105 14.7938 31.357C14.7669 31.0034 14.7132 30.6499 14.6326 30.2964C14.5521 29.97 14.4715 29.6165 14.4447 29.2902C14.391 28.9366 14.391 28.5831 14.3641 28.2296C14.2567 26.9514 14.2298 25.6189 13.7465 24.4223C13.5317 23.8512 13.2094 23.2529 12.7529 22.8178C12.3233 22.4371 11.7594 22.0835 11.1686 22.0563C10.7927 22.0292 10.2556 22.0563 10.0139 22.4099C9.87966 22.6274 9.93337 22.8178 10.0139 23.0082C10.1482 23.3617 10.1482 23.688 10.1482 24.0688C10.2019 25.5645 10.0945 27.0602 10.0408 28.5559C9.98707 29.9972 9.98707 31.4386 10.2825 32.8799C10.4167 33.587 10.6584 34.2668 10.9269 34.9467C11.2223 35.7081 11.276 36.524 11.4103 37.3126C11.464 37.639 11.5714 37.9925 11.5983 38.3189C11.6251 38.6724 11.6788 39.0259 11.7594 39.3794C11.8399 39.7058 12.001 39.9777 12.0816 40.2769C12.1353 40.4672 12.1085 40.6848 12.1353 40.8752C12.1622 41.0655 12.189 41.2831 12.2159 41.4734C12.2696 41.7998 12.3233 42.1533 12.3233 42.5069C12.3233 42.9148 12.2159 43.3227 12.1085 43.7034C11.9473 44.4377 11.9473 45.1719 11.8936 45.9062C11.8399 46.6405 11.7594 47.3747 11.5983 48.109C11.4371 48.7617 11.1686 49.3871 10.9538 50.0398C10.551 51.1548 10.1213 52.3242 9.23518 53.1672C8.75183 53.6295 8.16108 53.8743 7.57031 54.1462C7.03325 54.391 6.49619 54.6085 6.0934 55.0709C5.61004 55.6148 5.20725 56.2674 4.83131 56.8657C4.64333 57.1649 4.45535 57.464 4.26738 57.736C4.05256 58.0895 3.75719 58.3614 3.48866 58.6606C3.0053 59.1229 2.52195 59.5852 2.06545 60.0475C1.82378 60.2923 1.58209 60.537 1.36727 60.809C1.25985 60.9449 1.15245 61.1081 1.01818 61.2169C0.883916 61.3257 0.749651 61.3801 0.615386 61.4344C0.346856 61.5432 0.615386 61.788 0.749651 61.7064Z"/>
</mask>
<path d="M0.749651 61.7064C1.04503 61.5704 1.233 61.4344 1.44782 61.1625C1.6895 60.8634 1.93119 60.5914 2.19972 60.3195C2.68307 59.8028 3.22012 59.3404 3.70348 58.8509C3.94515 58.6062 4.18683 58.3886 4.3748 58.1167C4.56277 57.8175 4.75075 57.5184 4.96557 57.2464C5.34151 56.6482 5.74431 56.0499 6.17395 55.506C6.97954 54.4726 8.40275 54.3638 9.3426 53.5479C10.175 52.8137 10.6584 51.7803 11.0343 50.7741C11.2492 50.1758 11.4908 49.6047 11.6788 48.9792C11.8936 48.2994 12.0279 47.5923 12.1085 46.8852C12.189 46.1782 12.2159 45.4711 12.2427 44.764C12.2696 44.057 12.565 43.4043 12.5918 42.6972C12.6187 41.9902 12.4038 41.3375 12.377 40.6304C12.3501 40.3041 12.189 40.0049 12.0816 39.6786C11.9742 39.3251 11.8936 38.9443 11.8668 38.5908C11.8399 38.2373 11.7594 37.9109 11.7057 37.5846C11.6251 37.1767 11.5714 36.7687 11.5177 36.388C11.464 36.0345 11.3834 35.681 11.276 35.3274C11.1686 34.9739 11.0075 34.6475 10.9001 34.294C9.93336 31.5473 10.363 28.5559 10.4167 25.7276C10.4436 25.0478 10.4167 24.3679 10.3899 23.6608C10.3899 23.5249 10.363 23.3889 10.3362 23.2801C10.2825 23.1441 10.2019 22.981 10.175 22.845C10.175 22.573 10.4973 22.4643 10.739 22.4099C12.0816 22.1923 13.0215 23.4161 13.4511 24.5311C13.8807 25.7276 13.9345 27.033 14.015 28.284C14.0419 28.6103 14.0419 28.9366 14.0956 29.263C14.1493 29.6437 14.2298 29.9972 14.3104 30.3508C14.3641 30.6771 14.4447 31.0034 14.4447 31.3026C14.4715 31.6289 14.4984 31.9281 14.6326 32.2544C14.7938 32.5807 14.9817 32.9071 15.116 33.2334C15.2771 33.5598 15.4114 33.9133 15.5456 34.2396C15.8142 34.9195 16.0559 35.6266 16.2975 36.3064C16.4049 36.66 16.5123 37.0135 16.6466 37.3398C16.7003 37.4486 16.7809 37.5574 16.8346 37.6662C16.942 37.8293 17.0226 37.9925 17.1031 38.1829C17.2374 38.482 17.3716 38.7812 17.4253 39.1075C17.5059 39.5154 17.5328 39.9233 17.5328 40.3313C17.5328 40.6848 17.5059 41.0383 17.5059 41.4191C17.5059 41.7454 17.5865 42.0445 17.667 42.3709C17.7476 42.67 17.9356 42.9692 18.0698 43.2411C18.2041 43.5403 18.3652 43.8122 18.5263 44.1113C19.1439 45.2535 19.8153 46.3957 20.3792 47.5651C20.9431 48.7345 21.3996 49.9854 21.5607 51.2908C21.7487 52.7865 21.5876 54.2822 21.0774 55.6963C20.9699 56.0227 20.8357 56.349 20.6746 56.6482C20.4866 56.9745 20.2718 57.3008 20.1106 57.6272C19.9495 57.9263 19.7884 58.2255 19.681 58.5246C19.5467 58.8781 19.3319 59.1773 19.1171 59.5036C18.6606 60.1291 18.1504 60.7002 17.667 61.2985C17.1568 61.8968 16.6466 62.495 16.1364 63.0933C15.1697 64.2083 14.3373 65.4593 13.2094 66.3839C12.6724 66.819 12.1353 67.227 11.5983 67.6349C11.0343 68.07 10.551 68.5867 10.0676 69.1306C9.61113 69.6745 9.18149 70.2456 8.64443 70.7351C8.18793 71.1702 7.59715 71.6325 6.95268 71.7413C6.81842 71.7685 6.71101 71.7685 6.57675 71.7957C6.52304 71.8229 6.41563 71.8501 6.36193 71.7957C6.17396 71.6325 6.41562 71.0342 6.46933 70.8711C6.71101 70.2456 7.16751 69.7017 7.59716 69.2122C9.50372 67.0094 11.8131 65.2689 13.9882 63.3653C15.116 62.3863 16.3781 61.5432 17.667 60.809C18.956 60.0747 20.3255 59.5036 21.5607 58.6606C22.2052 58.2255 22.8228 57.7631 23.4404 57.2736C24.0043 56.8385 24.5145 56.3218 24.9979 55.8051C25.4812 55.2612 25.9377 54.7173 26.3942 54.1734C26.8507 53.6023 27.3878 53.0856 27.898 52.5689C28.9721 51.4811 29.9925 50.3118 31.0667 49.224C31.5769 48.7073 32.1139 48.2178 32.5973 47.6739C32.7852 47.4563 33.0001 47.2388 33.1612 46.9668C33.3223 46.6949 33.4297 46.3685 33.564 46.0694C34.1547 44.764 34.9066 43.5403 35.578 42.2621C35.9002 41.691 36.1419 41.0655 36.4641 40.4944C36.7326 39.9777 37.0817 39.5154 37.2697 38.9715C37.5382 38.0741 36.9475 37.0407 36.0345 36.8231C35.2826 36.6328 34.5575 37.0679 33.9668 37.503C33.2686 38.0197 32.6778 38.6724 32.1139 39.3523C31.8454 39.6514 31.6037 39.9777 31.4157 40.3041C31.0398 40.9296 30.6907 41.5822 30.3416 42.2077C29.9925 42.806 29.6166 43.4859 29.0527 43.9482C28.7842 44.1657 28.4351 44.3017 28.1128 44.4649C27.7906 44.6009 27.4684 44.764 27.1461 44.9272C27.1998 44.9272 27.2535 44.9272 27.3072 44.9272C27.2535 44.9 27.173 44.8728 27.1193 44.8184C27.173 44.8728 27.1998 44.9272 27.2535 44.9816C27.1461 44.5465 27.1461 44.0842 27.0924 43.649C27.0656 43.5131 26.7433 43.3771 26.7702 43.5675C26.8239 43.8938 26.8239 44.2473 26.8776 44.6009C26.9044 44.8728 26.9313 45.0088 27.1998 45.1447C27.4415 45.2535 27.6295 45.0904 27.8443 44.9816C28.1934 44.8184 28.5425 44.6552 28.8647 44.4921C29.536 44.1657 29.9657 43.5403 30.3685 42.9148C30.7713 42.2621 31.1204 41.5822 31.4963 40.9296C31.9528 40.1409 32.5167 39.4338 33.1343 38.754C33.7251 38.1285 34.4501 37.4214 35.3094 37.1495C35.6585 37.0407 36.0344 37.0135 36.3567 37.2039C36.84 37.4758 37.1086 38.0741 37.0012 38.618C36.8937 39.2435 36.4641 39.7602 36.1687 40.3041C35.8465 40.9024 35.578 41.5278 35.2289 42.1533C34.5575 43.4043 33.8057 44.6552 33.2149 45.9606C33.0806 46.2597 32.9732 46.5589 32.8121 46.8308C32.6241 47.1028 32.4093 47.3203 32.1945 47.5651C31.9528 47.8642 31.6574 48.109 31.3889 48.3809C31.1204 48.6529 30.8518 48.9248 30.5833 49.1968C29.4823 50.3118 28.4619 51.4811 27.3609 52.5961C27.0924 52.8681 26.8507 53.1128 26.5822 53.3848C26.3137 53.6567 26.072 53.9831 25.8303 54.2822C25.347 54.8533 24.8636 55.4244 24.3534 55.9683C24.0849 56.2402 23.8163 56.5394 23.521 56.7841C23.1987 57.0289 22.8765 57.2736 22.5811 57.4912C21.9366 57.9535 21.2922 58.443 20.6208 58.8237C19.2782 59.5852 17.855 60.2107 16.5661 61.0537C15.9484 61.4616 15.304 61.8696 14.6863 62.3047C14.0687 62.767 13.5317 63.2837 12.9409 63.7732C11.8399 64.725 10.7121 65.6496 9.63798 66.6287C8.59071 67.5805 7.51659 68.6139 6.68415 69.7833C6.49618 70.028 6.33507 70.3 6.22766 70.5991C6.12025 70.8711 5.98597 71.1974 6.01283 71.4965C6.03968 71.9317 6.41563 72.122 6.79157 72.0404C7.03325 71.986 7.27493 71.986 7.5166 71.8773C7.81199 71.7685 8.10737 71.5781 8.3759 71.3878C8.93981 70.9798 9.42316 70.4359 9.87966 69.892C10.363 69.3209 10.8195 68.7227 11.3834 68.2332C11.9205 67.7436 12.5113 67.3357 13.0752 66.9006C13.6122 66.4655 14.1493 66.0032 14.6058 65.4865C15.116 64.8882 15.5725 64.2627 16.0827 63.6644C17.1031 62.4407 18.1772 61.2985 19.1708 60.0475C19.3856 59.7484 19.6004 59.4492 19.7884 59.1501C19.9764 58.8509 20.0838 58.5246 20.2449 58.1983C20.5671 57.5728 20.9968 57.0017 21.2653 56.349C21.8292 54.9621 22.0978 53.4664 21.9903 51.9707C21.8024 49.224 20.406 46.8852 19.1171 44.5465C18.7949 43.9482 18.4458 43.3227 18.1504 42.7244C17.8281 42.0445 17.855 41.3375 17.8818 40.576C17.8818 40.1953 17.8818 39.8146 17.8281 39.461C17.7744 39.0803 17.6402 38.754 17.5059 38.4276C17.3985 38.1557 17.2911 37.8565 17.13 37.6118C16.9151 37.2854 16.8346 36.9319 16.7003 36.5784C16.4586 35.8441 16.217 35.1371 15.9484 34.4028C15.6799 33.6685 15.3308 32.9887 14.9817 32.3088C14.8206 31.9825 14.7938 31.7105 14.7938 31.357C14.7669 31.0034 14.7132 30.6499 14.6326 30.2964C14.5521 29.97 14.4715 29.6165 14.4447 29.2902C14.391 28.9366 14.391 28.5831 14.3641 28.2296C14.2567 26.9514 14.2298 25.6189 13.7465 24.4223C13.5317 23.8512 13.2094 23.2529 12.7529 22.8178C12.3233 22.4371 11.7594 22.0835 11.1686 22.0563C10.7927 22.0292 10.2556 22.0563 10.0139 22.4099C9.87966 22.6274 9.93337 22.8178 10.0139 23.0082C10.1482 23.3617 10.1482 23.688 10.1482 24.0688C10.2019 25.5645 10.0945 27.0602 10.0408 28.5559C9.98707 29.9972 9.98707 31.4386 10.2825 32.8799C10.4167 33.587 10.6584 34.2668 10.9269 34.9467C11.2223 35.7081 11.276 36.524 11.4103 37.3126C11.464 37.639 11.5714 37.9925 11.5983 38.3189C11.6251 38.6724 11.6788 39.0259 11.7594 39.3794C11.8399 39.7058 12.001 39.9777 12.0816 40.2769C12.1353 40.4672 12.1085 40.6848 12.1353 40.8752C12.1622 41.0655 12.189 41.2831 12.2159 41.4734C12.2696 41.7998 12.3233 42.1533 12.3233 42.5069C12.3233 42.9148 12.2159 43.3227 12.1085 43.7034C11.9473 44.4377 11.9473 45.1719 11.8936 45.9062C11.8399 46.6405 11.7594 47.3747 11.5983 48.109C11.4371 48.7617 11.1686 49.3871 10.9538 50.0398C10.551 51.1548 10.1213 52.3242 9.23518 53.1672C8.75183 53.6295 8.16108 53.8743 7.57031 54.1462C7.03325 54.391 6.49619 54.6085 6.0934 55.0709C5.61004 55.6148 5.20725 56.2674 4.83131 56.8657C4.64333 57.1649 4.45535 57.464 4.26738 57.736C4.05256 58.0895 3.75719 58.3614 3.48866 58.6606C3.0053 59.1229 2.52195 59.5852 2.06545 60.0475C1.82378 60.2923 1.58209 60.537 1.36727 60.809C1.25985 60.9449 1.15245 61.1081 1.01818 61.2169C0.883916 61.3257 0.749651 61.3801 0.615386 61.4344C0.346856 61.5432 0.615386 61.788 0.749651 61.7064Z" fill="#DE968D"/>
<path d="M0.749651 61.7064C1.04503 61.5704 1.233 61.4344 1.44782 61.1625C1.6895 60.8634 1.93119 60.5914 2.19972 60.3195C2.68307 59.8028 3.22012 59.3404 3.70348 58.8509C3.94515 58.6062 4.18683 58.3886 4.3748 58.1167C4.56277 57.8175 4.75075 57.5184 4.96557 57.2464C5.34151 56.6482 5.74431 56.0499 6.17395 55.506C6.97954 54.4726 8.40275 54.3638 9.3426 53.5479C10.175 52.8137 10.6584 51.7803 11.0343 50.7741C11.2492 50.1758 11.4908 49.6047 11.6788 48.9792C11.8936 48.2994 12.0279 47.5923 12.1085 46.8852C12.189 46.1782 12.2159 45.4711 12.2427 44.764C12.2696 44.057 12.565 43.4043 12.5918 42.6972C12.6187 41.9902 12.4038 41.3375 12.377 40.6304C12.3501 40.3041 12.189 40.0049 12.0816 39.6786C11.9742 39.3251 11.8936 38.9443 11.8668 38.5908C11.8399 38.2373 11.7594 37.9109 11.7057 37.5846C11.6251 37.1767 11.5714 36.7687 11.5177 36.388C11.464 36.0345 11.3834 35.681 11.276 35.3274C11.1686 34.9739 11.0075 34.6475 10.9001 34.294C9.93336 31.5473 10.363 28.5559 10.4167 25.7276C10.4436 25.0478 10.4167 24.3679 10.3899 23.6608C10.3899 23.5249 10.363 23.3889 10.3362 23.2801C10.2825 23.1441 10.2019 22.981 10.175 22.845C10.175 22.573 10.4973 22.4643 10.739 22.4099C12.0816 22.1923 13.0215 23.4161 13.4511 24.5311C13.8807 25.7276 13.9345 27.033 14.015 28.284C14.0419 28.6103 14.0419 28.9366 14.0956 29.263C14.1493 29.6437 14.2298 29.9972 14.3104 30.3508C14.3641 30.6771 14.4447 31.0034 14.4447 31.3026C14.4715 31.6289 14.4984 31.9281 14.6326 32.2544C14.7938 32.5807 14.9817 32.9071 15.116 33.2334C15.2771 33.5598 15.4114 33.9133 15.5456 34.2396C15.8142 34.9195 16.0559 35.6266 16.2975 36.3064C16.4049 36.66 16.5123 37.0135 16.6466 37.3398C16.7003 37.4486 16.7809 37.5574 16.8346 37.6662C16.942 37.8293 17.0226 37.9925 17.1031 38.1829C17.2374 38.482 17.3716 38.7812 17.4253 39.1075C17.5059 39.5154 17.5328 39.9233 17.5328 40.3313C17.5328 40.6848 17.5059 41.0383 17.5059 41.4191C17.5059 41.7454 17.5865 42.0445 17.667 42.3709C17.7476 42.67 17.9356 42.9692 18.0698 43.2411C18.2041 43.5403 18.3652 43.8122 18.5263 44.1113C19.1439 45.2535 19.8153 46.3957 20.3792 47.5651C20.9431 48.7345 21.3996 49.9854 21.5607 51.2908C21.7487 52.7865 21.5876 54.2822 21.0774 55.6963C20.9699 56.0227 20.8357 56.349 20.6746 56.6482C20.4866 56.9745 20.2718 57.3008 20.1106 57.6272C19.9495 57.9263 19.7884 58.2255 19.681 58.5246C19.5467 58.8781 19.3319 59.1773 19.1171 59.5036C18.6606 60.1291 18.1504 60.7002 17.667 61.2985C17.1568 61.8968 16.6466 62.495 16.1364 63.0933C15.1697 64.2083 14.3373 65.4593 13.2094 66.3839C12.6724 66.819 12.1353 67.227 11.5983 67.6349C11.0343 68.07 10.551 68.5867 10.0676 69.1306C9.61113 69.6745 9.18149 70.2456 8.64443 70.7351C8.18793 71.1702 7.59715 71.6325 6.95268 71.7413C6.81842 71.7685 6.71101 71.7685 6.57675 71.7957C6.52304 71.8229 6.41563 71.8501 6.36193 71.7957C6.17396 71.6325 6.41562 71.0342 6.46933 70.8711C6.71101 70.2456 7.16751 69.7017 7.59716 69.2122C9.50372 67.0094 11.8131 65.2689 13.9882 63.3653C15.116 62.3863 16.3781 61.5432 17.667 60.809C18.956 60.0747 20.3255 59.5036 21.5607 58.6606C22.2052 58.2255 22.8228 57.7631 23.4404 57.2736C24.0043 56.8385 24.5145 56.3218 24.9979 55.8051C25.4812 55.2612 25.9377 54.7173 26.3942 54.1734C26.8507 53.6023 27.3878 53.0856 27.898 52.5689C28.9721 51.4811 29.9925 50.3118 31.0667 49.224C31.5769 48.7073 32.1139 48.2178 32.5973 47.6739C32.7852 47.4563 33.0001 47.2388 33.1612 46.9668C33.3223 46.6949 33.4297 46.3685 33.564 46.0694C34.1547 44.764 34.9066 43.5403 35.578 42.2621C35.9002 41.691 36.1419 41.0655 36.4641 40.4944C36.7326 39.9777 37.0817 39.5154 37.2697 38.9715C37.5382 38.0741 36.9475 37.0407 36.0345 36.8231C35.2826 36.6328 34.5575 37.0679 33.9668 37.503C33.2686 38.0197 32.6778 38.6724 32.1139 39.3523C31.8454 39.6514 31.6037 39.9777 31.4157 40.3041C31.0398 40.9296 30.6907 41.5822 30.3416 42.2077C29.9925 42.806 29.6166 43.4859 29.0527 43.9482C28.7842 44.1657 28.4351 44.3017 28.1128 44.4649C27.7906 44.6009 27.4684 44.764 27.1461 44.9272C27.1998 44.9272 27.2535 44.9272 27.3072 44.9272C27.2535 44.9 27.173 44.8728 27.1193 44.8184C27.173 44.8728 27.1998 44.9272 27.2535 44.9816C27.1461 44.5465 27.1461 44.0842 27.0924 43.649C27.0656 43.5131 26.7433 43.3771 26.7702 43.5675C26.8239 43.8938 26.8239 44.2473 26.8776 44.6009C26.9044 44.8728 26.9313 45.0088 27.1998 45.1447C27.4415 45.2535 27.6295 45.0904 27.8443 44.9816C28.1934 44.8184 28.5425 44.6552 28.8647 44.4921C29.536 44.1657 29.9657 43.5403 30.3685 42.9148C30.7713 42.2621 31.1204 41.5822 31.4963 40.9296C31.9528 40.1409 32.5167 39.4338 33.1343 38.754C33.7251 38.1285 34.4501 37.4214 35.3094 37.1495C35.6585 37.0407 36.0344 37.0135 36.3567 37.2039C36.84 37.4758 37.1086 38.0741 37.0012 38.618C36.8937 39.2435 36.4641 39.7602 36.1687 40.3041C35.8465 40.9024 35.578 41.5278 35.2289 42.1533C34.5575 43.4043 33.8057 44.6552 33.2149 45.9606C33.0806 46.2597 32.9732 46.5589 32.8121 46.8308C32.6241 47.1028 32.4093 47.3203 32.1945 47.5651C31.9528 47.8642 31.6574 48.109 31.3889 48.3809C31.1204 48.6529 30.8518 48.9248 30.5833 49.1968C29.4823 50.3118 28.4619 51.4811 27.3609 52.5961C27.0924 52.8681 26.8507 53.1128 26.5822 53.3848C26.3137 53.6567 26.072 53.9831 25.8303 54.2822C25.347 54.8533 24.8636 55.4244 24.3534 55.9683C24.0849 56.2402 23.8163 56.5394 23.521 56.7841C23.1987 57.0289 22.8765 57.2736 22.5811 57.4912C21.9366 57.9535 21.2922 58.443 20.6208 58.8237C19.2782 59.5852 17.855 60.2107 16.5661 61.0537C15.9484 61.4616 15.304 61.8696 14.6863 62.3047C14.0687 62.767 13.5317 63.2837 12.9409 63.7732C11.8399 64.725 10.7121 65.6496 9.63798 66.6287C8.59071 67.5805 7.51659 68.6139 6.68415 69.7833C6.49618 70.028 6.33507 70.3 6.22766 70.5991C6.12025 70.8711 5.98597 71.1974 6.01283 71.4965C6.03968 71.9317 6.41563 72.122 6.79157 72.0404C7.03325 71.986 7.27493 71.986 7.5166 71.8773C7.81199 71.7685 8.10737 71.5781 8.3759 71.3878C8.93981 70.9798 9.42316 70.4359 9.87966 69.892C10.363 69.3209 10.8195 68.7227 11.3834 68.2332C11.9205 67.7436 12.5113 67.3357 13.0752 66.9006C13.6122 66.4655 14.1493 66.0032 14.6058 65.4865C15.116 64.8882 15.5725 64.2627 16.0827 63.6644C17.1031 62.4407 18.1772 61.2985 19.1708 60.0475C19.3856 59.7484 19.6004 59.4492 19.7884 59.1501C19.9764 58.8509 20.0838 58.5246 20.2449 58.1983C20.5671 57.5728 20.9968 57.0017 21.2653 56.349C21.8292 54.9621 22.0978 53.4664 21.9903 51.9707C21.8024 49.224 20.406 46.8852 19.1171 44.5465C18.7949 43.9482 18.4458 43.3227 18.1504 42.7244C17.8281 42.0445 17.855 41.3375 17.8818 40.576C17.8818 40.1953 17.8818 39.8146 17.8281 39.461C17.7744 39.0803 17.6402 38.754 17.5059 38.4276C17.3985 38.1557 17.2911 37.8565 17.13 37.6118C16.9151 37.2854 16.8346 36.9319 16.7003 36.5784C16.4586 35.8441 16.217 35.1371 15.9484 34.4028C15.6799 33.6685 15.3308 32.9887 14.9817 32.3088C14.8206 31.9825 14.7938 31.7105 14.7938 31.357C14.7669 31.0034 14.7132 30.6499 14.6326 30.2964C14.5521 29.97 14.4715 29.6165 14.4447 29.2902C14.391 28.9366 14.391 28.5831 14.3641 28.2296C14.2567 26.9514 14.2298 25.6189 13.7465 24.4223C13.5317 23.8512 13.2094 23.2529 12.7529 22.8178C12.3233 22.4371 11.7594 22.0835 11.1686 22.0563C10.7927 22.0292 10.2556 22.0563 10.0139 22.4099C9.87966 22.6274 9.93337 22.8178 10.0139 23.0082C10.1482 23.3617 10.1482 23.688 10.1482 24.0688C10.2019 25.5645 10.0945 27.0602 10.0408 28.5559C9.98707 29.9972 9.98707 31.4386 10.2825 32.8799C10.4167 33.587 10.6584 34.2668 10.9269 34.9467C11.2223 35.7081 11.276 36.524 11.4103 37.3126C11.464 37.639 11.5714 37.9925 11.5983 38.3189C11.6251 38.6724 11.6788 39.0259 11.7594 39.3794C11.8399 39.7058 12.001 39.9777 12.0816 40.2769C12.1353 40.4672 12.1085 40.6848 12.1353 40.8752C12.1622 41.0655 12.189 41.2831 12.2159 41.4734C12.2696 41.7998 12.3233 42.1533 12.3233 42.5069C12.3233 42.9148 12.2159 43.3227 12.1085 43.7034C11.9473 44.4377 11.9473 45.1719 11.8936 45.9062C11.8399 46.6405 11.7594 47.3747 11.5983 48.109C11.4371 48.7617 11.1686 49.3871 10.9538 50.0398C10.551 51.1548 10.1213 52.3242 9.23518 53.1672C8.75183 53.6295 8.16108 53.8743 7.57031 54.1462C7.03325 54.391 6.49619 54.6085 6.0934 55.0709C5.61004 55.6148 5.20725 56.2674 4.83131 56.8657C4.64333 57.1649 4.45535 57.464 4.26738 57.736C4.05256 58.0895 3.75719 58.3614 3.48866 58.6606C3.0053 59.1229 2.52195 59.5852 2.06545 60.0475C1.82378 60.2923 1.58209 60.537 1.36727 60.809C1.25985 60.9449 1.15245 61.1081 1.01818 61.2169C0.883916 61.3257 0.749651 61.3801 0.615386 61.4344C0.346856 61.5432 0.615386 61.788 0.749651 61.7064Z" stroke="#DE968D" mask="url(#path-1-outside-1_5114_2243)"/>
<mask id="path-2-outside-2_5114_2243" maskUnits="userSpaceOnUse" x="15.1096" y="13.6426" width="13" height="32" fill="black">
<rect fill="white" x="15.1096" y="13.6426" width="13" height="32"/>
<path d="M27.0388 43.7306C27.0388 43.4859 27.0656 43.2139 27.0656 42.9691C27.0656 42.7244 27.0119 42.5068 26.9582 42.2621C26.8239 41.7726 26.6628 41.3103 26.6091 40.8208C26.5823 40.576 26.5554 40.3041 26.5554 40.0593C26.5554 39.8146 26.4749 39.597 26.4211 39.3522C26.3674 39.1075 26.3674 38.8627 26.3406 38.618C26.3406 38.3732 26.3137 38.1557 26.26 37.9109C26.1526 37.503 26.0989 37.0679 25.8304 36.7143C25.6961 36.5512 25.5619 36.4424 25.3739 36.3336C25.1859 36.1976 24.9711 36.0617 24.7563 36.0073C24.6489 35.9801 24.5415 36.0073 24.434 35.9529C24.3266 35.9257 24.2729 35.8441 24.1655 35.7897C23.9507 35.7081 23.709 35.6265 23.4942 35.5722C23.0108 35.4634 22.5006 35.4362 21.9904 35.409C21.5071 35.409 20.9968 35.3818 20.5135 35.4362C20.2718 35.4634 20.0302 35.5178 19.7885 35.5178C19.6542 35.5178 19.5468 35.5178 19.4125 35.5178C19.3051 35.545 19.1709 35.5722 19.0634 35.5994C18.8218 35.6537 18.5532 35.6265 18.3116 35.6265C18.1236 35.6265 17.9356 35.6265 17.7208 35.6265C17.5597 35.6265 17.3717 35.6537 17.1837 35.6265C16.9958 35.5994 16.9689 35.4362 16.8883 35.3002C16.8615 35.2186 16.8078 35.137 16.7541 35.0826C16.7004 35.0283 16.6198 34.9739 16.593 34.8923C16.4856 34.7291 16.5124 34.43 16.5124 34.2396C16.5124 33.7773 16.5661 33.315 16.6198 32.8527C16.7272 31.7921 16.7809 30.7315 16.7809 29.6709C16.7809 29.127 16.7809 28.5831 16.7809 28.0392C16.7809 27.7944 16.7809 27.5225 16.7809 27.2777C16.7809 27.033 16.7541 26.7882 16.7809 26.5435C16.8346 26.0268 17.0226 25.5373 17.1569 25.0206C17.2911 24.5039 17.3717 23.9872 17.4791 23.4977C17.5328 23.2529 17.5865 22.981 17.6134 22.7362C17.6402 22.4914 17.6402 22.2195 17.6402 21.9747C17.6402 21.73 17.6939 21.4852 17.7208 21.2405C17.7477 20.9957 17.7476 20.751 17.7476 20.5062C17.7476 19.9895 17.8282 19.4728 17.8551 18.9561C17.8819 18.4122 17.8551 17.8955 17.8551 17.3516C17.8551 17.1341 17.8551 16.9165 17.8282 16.699C17.8282 16.5086 17.8282 16.3454 17.9625 16.2094C18.2578 15.8831 18.7681 15.8831 19.1708 15.9103C19.7885 15.9647 20.0838 16.6718 20.245 17.1885C20.3524 17.5148 20.4061 17.8411 20.4866 18.1675C20.5941 18.6842 20.7283 19.1737 20.8357 19.6904C20.9431 20.2071 21.0237 20.7238 21.0506 21.2677C21.0774 21.7844 21.0506 22.3283 21.0506 22.845C21.0506 23.3889 21.0506 23.9328 21.0506 24.4767C21.0237 24.9934 20.9432 25.4829 20.9432 25.9996C20.9432 26.5435 20.9432 27.0874 20.9432 27.6585C20.9432 28.1752 20.9969 28.6919 21.0774 29.1814C21.158 29.6981 21.2922 30.2148 21.3728 30.7587C21.4534 31.3026 21.4802 31.8465 21.5071 32.3904C21.5339 32.6351 21.5339 32.9071 21.5608 33.1518C21.5876 33.3966 21.5608 33.6413 21.5608 33.9133C21.5608 34.158 21.5608 34.4028 21.6145 34.6475C21.6682 34.8651 21.6682 35.0827 21.7219 35.3002C21.7756 35.4634 21.8561 35.6809 22.0441 35.7081C22.2052 35.7353 22.3932 35.6537 22.4201 35.4906C22.4469 35.409 22.3126 35.3546 22.2589 35.3546C22.0173 35.3274 21.7756 35.409 21.5339 35.3818C21.2385 35.3546 21.3191 35.0011 21.2922 34.8107C21.2654 34.3756 21.158 33.9405 21.1043 33.5054C21.0506 33.043 21.0506 32.5807 21.0774 32.1456C21.1043 31.2482 21.158 30.3236 21.3191 29.4533C21.5071 28.5831 21.6413 27.6857 21.8025 26.8154C22.1247 24.9934 22.4469 23.1985 22.4738 21.3493C22.4738 20.4246 22.4469 19.5 22.4201 18.5754C22.4201 18.1131 22.3932 17.6508 22.4201 17.1885C22.4201 16.7533 22.4201 16.291 22.5006 15.8559C22.5543 15.4208 22.796 15.0129 23.1988 14.8769C23.5747 14.7409 24.0044 14.8497 24.3266 15.0673C24.5146 15.2032 24.7026 15.3664 24.8368 15.5568C24.998 15.7743 25.0785 16.0463 25.1859 16.291C25.3202 16.6718 25.4813 17.0525 25.6424 17.4332C25.8035 17.8139 25.8841 18.1947 25.9378 18.6026C25.9915 19.0377 26.1258 19.4728 26.1258 19.9351C26.1258 20.3703 26.0989 20.8054 26.0989 21.2405C26.0989 22.1651 26.0989 23.1169 26.0989 24.0687C26.0989 24.9662 25.9109 25.8364 25.7498 26.7066C25.723 26.9242 25.6693 27.1418 25.6156 27.3593C25.5619 27.5497 25.5081 27.7672 25.4813 27.9576C25.4544 28.1752 25.4276 28.3927 25.4007 28.6103C25.3739 28.8278 25.3202 29.0182 25.3202 29.2358C25.2128 30.106 25.2665 31.0034 25.3202 31.8737C25.4007 32.7983 25.5081 33.6957 25.6156 34.6203C25.6693 35.0827 25.723 35.545 25.8035 36.0073C25.8304 36.2248 25.8841 36.4696 25.8841 36.7143C25.8841 36.9319 25.8841 37.1495 25.8841 37.367C25.8841 37.8021 25.9915 38.2373 26.0452 38.6996C26.0721 38.9171 26.0989 39.1347 26.0989 39.3794C26.0989 39.5426 26.0989 39.7058 26.1526 39.8689C26.2332 40.0593 26.3406 40.1953 26.3675 40.3856C26.3943 40.5216 26.3943 40.6848 26.5017 40.8208C26.5823 40.9023 26.7971 40.9567 26.8239 40.7936C26.9314 40.2225 26.9314 39.6514 26.9582 39.0803C26.9851 38.482 27.0388 37.8837 27.0925 37.2854C27.1999 36.0889 27.1462 34.8651 27.1462 33.6413C27.1462 33.043 27.173 32.4176 27.1193 31.8193C27.0925 31.221 26.9582 30.6771 26.8508 30.106C26.7165 29.5349 26.6628 28.9366 26.5823 28.3655C26.4749 27.7672 26.3674 27.1962 26.26 26.5979C26.2332 26.4347 26.2063 26.3259 26.2332 26.1628C26.2332 25.9724 26.26 25.8092 26.2869 25.6189C26.3137 25.3197 26.3674 25.0206 26.3943 24.7214C26.3943 24.5583 26.0452 24.5039 26.0452 24.667C26.0184 25.2109 25.8572 25.7548 25.8841 26.2987C25.8841 26.5163 25.9647 26.7338 25.9915 26.9514C26.0452 27.2505 26.0989 27.5497 26.1526 27.8216C26.26 28.4199 26.3406 29.0182 26.4211 29.5893C26.5017 30.1604 26.6897 30.7315 26.7434 31.3026C26.8239 31.9009 26.8239 32.5263 26.7971 33.1518C26.7971 34.3756 26.8508 35.5722 26.7703 36.7959C26.7165 37.4486 26.636 38.1285 26.6091 38.7811C26.5823 39.4338 26.5823 40.0865 26.448 40.7392C26.5554 40.7392 26.6628 40.7392 26.7703 40.712C26.6628 40.576 26.6897 40.4128 26.6628 40.2497C26.6091 40.0593 26.4749 39.8961 26.4211 39.7058C26.3674 39.5154 26.3943 39.325 26.3943 39.1347C26.3943 38.9171 26.3406 38.6996 26.3137 38.482C26.2869 38.2644 26.2332 38.0197 26.2063 37.8021C26.1795 37.5574 26.1795 37.3398 26.1795 37.0951C26.1795 36.8775 26.1795 36.66 26.1526 36.4152C26.1258 36.1704 26.0721 35.9257 26.0452 35.6809C25.911 34.7291 25.8035 33.8045 25.6961 32.8527C25.5887 31.9281 25.5082 31.0034 25.535 30.0788C25.5619 29.6165 25.6156 29.1814 25.6693 28.7463C25.6961 28.5287 25.723 28.3111 25.7498 28.0936C25.7767 27.876 25.8304 27.6585 25.8841 27.4681C26.0184 27.033 26.0721 26.5707 26.1526 26.1084C26.2332 25.646 26.3137 25.1837 26.3406 24.7214C26.3674 24.2591 26.3675 23.7696 26.3675 23.3073C26.3675 22.8178 26.3675 22.3283 26.3675 21.866C26.3675 21.4037 26.3674 20.9413 26.3943 20.479C26.3943 20.0439 26.3943 19.6088 26.2869 19.1465C26.2063 18.7114 26.1526 18.2763 26.0452 17.8683C25.9378 17.4604 25.7498 17.1069 25.5887 16.7261C25.4544 16.3998 25.3739 16.0735 25.2396 15.7743C25.1322 15.5568 24.9711 15.3392 24.7563 15.176C24.085 14.5778 22.9034 14.3602 22.3126 15.176C22.1784 15.3664 22.0978 15.6384 22.0441 15.8831C21.9904 16.3182 21.9636 16.7805 21.9636 17.2428C21.9367 18.1947 21.9904 19.1737 22.0173 20.1255C22.0441 21.0773 22.0441 22.0291 21.9636 22.981C21.883 23.9056 21.7219 24.8574 21.5608 25.782C21.3997 26.7066 21.2117 27.6313 21.0774 28.5559C20.9969 28.991 20.8894 29.4261 20.8357 29.8884C20.7552 30.3508 20.7283 30.8131 20.7015 31.2754C20.6478 32.2 20.6209 33.1518 20.7552 34.0764C20.782 34.294 20.8357 34.5116 20.8626 34.7291C20.8895 34.9195 20.8626 35.137 20.9163 35.3274C20.97 35.5994 21.2117 35.7081 21.4534 35.7353C21.695 35.7625 21.9367 35.6809 22.1784 35.6809C22.1247 35.6266 22.071 35.5722 22.0173 35.545C22.0173 35.5722 22.0173 35.5722 21.9904 35.5722C22.0441 35.5994 22.0978 35.5994 22.1515 35.6265C21.9904 35.4906 21.9904 35.2458 21.9636 35.0555C21.9367 34.8107 21.8561 34.566 21.8561 34.3212C21.8561 34.0764 21.883 33.8317 21.883 33.5869C21.883 33.3422 21.8562 33.0974 21.8293 32.8527C21.7756 32.3088 21.7756 31.7921 21.7219 31.2482C21.6682 30.7315 21.5608 30.1876 21.4534 29.6709C21.3459 29.1542 21.2654 28.6375 21.2654 28.0936C21.2385 27.5497 21.2654 27.0058 21.2654 26.4619C21.2654 26.1899 21.2654 25.9452 21.2654 25.6732C21.2922 25.4285 21.3191 25.1837 21.3459 24.939C21.3997 24.3951 21.3728 23.8512 21.3728 23.3345C21.3728 22.2739 21.3997 21.2405 21.2117 20.2071C21.1311 19.6904 20.9969 19.1737 20.8894 18.657C20.8089 18.2763 20.7283 17.8955 20.6209 17.5148C20.4598 16.9437 20.245 16.2638 19.6811 15.9375C19.3588 15.7471 18.9829 15.7471 18.6338 15.7743C18.2578 15.8015 17.7745 15.9103 17.5328 16.2638C17.4523 16.3998 17.4254 16.5902 17.4254 16.7533C17.4254 16.9709 17.4523 17.1885 17.4523 17.4332C17.4523 17.9499 17.4791 18.4938 17.4523 19.0105C17.4254 19.5272 17.3448 20.0711 17.3448 20.5878C17.3448 20.8326 17.3449 21.0773 17.318 21.2949C17.2911 21.5396 17.2374 21.7844 17.2374 22.0291C17.2374 22.3011 17.2374 22.5458 17.2106 22.8178C17.1837 23.0625 17.13 23.3345 17.0763 23.5792C16.9689 24.0959 16.8883 24.6126 16.7541 25.1022C16.6198 25.5917 16.4587 26.0812 16.3781 26.5979C16.3513 26.8426 16.3781 27.1146 16.3781 27.3593C16.3781 27.6041 16.3781 27.876 16.3781 28.1208C16.3781 29.2086 16.405 30.2692 16.3513 31.357C16.3244 31.9009 16.2707 32.4176 16.217 32.9615C16.1633 33.4238 16.1096 33.8861 16.1096 34.3484C16.1096 34.5388 16.1096 34.7835 16.1633 35.0011C16.217 35.1642 16.3781 35.2458 16.4587 35.409C16.5661 35.5722 16.5661 35.7625 16.7272 35.8713C16.8615 35.9801 17.0495 36.0073 17.2106 36.0345C17.3986 36.0345 17.5597 36.0345 17.7476 36.0345C17.9356 36.0073 18.1504 36.0345 18.3384 36.0345C18.5801 36.0345 18.8486 36.0617 19.0903 36.0073C19.1977 35.9801 19.3051 35.9529 19.4125 35.9257C19.5468 35.8985 19.6811 35.9257 19.8153 35.9257C20.057 35.9257 20.2987 35.8713 20.5404 35.8441C20.782 35.8169 21.0237 35.8169 21.2654 35.8169C21.7756 35.8169 22.2858 35.7897 22.796 35.8713C23.0377 35.8985 23.3062 35.9529 23.5479 36.0345C23.6553 36.0617 23.7627 36.0889 23.8701 36.1161C23.9775 36.1432 24.0581 36.2248 24.1655 36.2792C24.2729 36.3336 24.3535 36.3336 24.4877 36.3608C24.622 36.3608 24.7026 36.4152 24.81 36.4696C24.9979 36.5784 25.2128 36.6871 25.347 36.8503C25.6693 37.1495 25.7498 37.6118 25.8304 38.0197C25.8841 38.2644 25.9378 38.5092 25.9378 38.7811C25.9378 39.0259 25.9378 39.2707 25.9915 39.5154C26.0452 39.7602 26.1258 39.9777 26.1526 40.2225C26.1526 40.4672 26.1795 40.712 26.2063 40.9567C26.2869 41.4734 26.4211 41.9357 26.5554 42.4253C26.6091 42.67 26.6628 42.8876 26.6897 43.1323C26.6897 43.3771 26.6628 43.6218 26.6628 43.8666C26.6897 43.8394 27.0388 43.8938 27.0388 43.7306Z"/>
</mask>
<path d="M27.0388 43.7306C27.0388 43.4859 27.0656 43.2139 27.0656 42.9691C27.0656 42.7244 27.0119 42.5068 26.9582 42.2621C26.8239 41.7726 26.6628 41.3103 26.6091 40.8208C26.5823 40.576 26.5554 40.3041 26.5554 40.0593C26.5554 39.8146 26.4749 39.597 26.4211 39.3522C26.3674 39.1075 26.3674 38.8627 26.3406 38.618C26.3406 38.3732 26.3137 38.1557 26.26 37.9109C26.1526 37.503 26.0989 37.0679 25.8304 36.7143C25.6961 36.5512 25.5619 36.4424 25.3739 36.3336C25.1859 36.1976 24.9711 36.0617 24.7563 36.0073C24.6489 35.9801 24.5415 36.0073 24.434 35.9529C24.3266 35.9257 24.2729 35.8441 24.1655 35.7897C23.9507 35.7081 23.709 35.6265 23.4942 35.5722C23.0108 35.4634 22.5006 35.4362 21.9904 35.409C21.5071 35.409 20.9968 35.3818 20.5135 35.4362C20.2718 35.4634 20.0302 35.5178 19.7885 35.5178C19.6542 35.5178 19.5468 35.5178 19.4125 35.5178C19.3051 35.545 19.1709 35.5722 19.0634 35.5994C18.8218 35.6537 18.5532 35.6265 18.3116 35.6265C18.1236 35.6265 17.9356 35.6265 17.7208 35.6265C17.5597 35.6265 17.3717 35.6537 17.1837 35.6265C16.9958 35.5994 16.9689 35.4362 16.8883 35.3002C16.8615 35.2186 16.8078 35.137 16.7541 35.0826C16.7004 35.0283 16.6198 34.9739 16.593 34.8923C16.4856 34.7291 16.5124 34.43 16.5124 34.2396C16.5124 33.7773 16.5661 33.315 16.6198 32.8527C16.7272 31.7921 16.7809 30.7315 16.7809 29.6709C16.7809 29.127 16.7809 28.5831 16.7809 28.0392C16.7809 27.7944 16.7809 27.5225 16.7809 27.2777C16.7809 27.033 16.7541 26.7882 16.7809 26.5435C16.8346 26.0268 17.0226 25.5373 17.1569 25.0206C17.2911 24.5039 17.3717 23.9872 17.4791 23.4977C17.5328 23.2529 17.5865 22.981 17.6134 22.7362C17.6402 22.4914 17.6402 22.2195 17.6402 21.9747C17.6402 21.73 17.6939 21.4852 17.7208 21.2405C17.7477 20.9957 17.7476 20.751 17.7476 20.5062C17.7476 19.9895 17.8282 19.4728 17.8551 18.9561C17.8819 18.4122 17.8551 17.8955 17.8551 17.3516C17.8551 17.1341 17.8551 16.9165 17.8282 16.699C17.8282 16.5086 17.8282 16.3454 17.9625 16.2094C18.2578 15.8831 18.7681 15.8831 19.1708 15.9103C19.7885 15.9647 20.0838 16.6718 20.245 17.1885C20.3524 17.5148 20.4061 17.8411 20.4866 18.1675C20.5941 18.6842 20.7283 19.1737 20.8357 19.6904C20.9431 20.2071 21.0237 20.7238 21.0506 21.2677C21.0774 21.7844 21.0506 22.3283 21.0506 22.845C21.0506 23.3889 21.0506 23.9328 21.0506 24.4767C21.0237 24.9934 20.9432 25.4829 20.9432 25.9996C20.9432 26.5435 20.9432 27.0874 20.9432 27.6585C20.9432 28.1752 20.9969 28.6919 21.0774 29.1814C21.158 29.6981 21.2922 30.2148 21.3728 30.7587C21.4534 31.3026 21.4802 31.8465 21.5071 32.3904C21.5339 32.6351 21.5339 32.9071 21.5608 33.1518C21.5876 33.3966 21.5608 33.6413 21.5608 33.9133C21.5608 34.158 21.5608 34.4028 21.6145 34.6475C21.6682 34.8651 21.6682 35.0827 21.7219 35.3002C21.7756 35.4634 21.8561 35.6809 22.0441 35.7081C22.2052 35.7353 22.3932 35.6537 22.4201 35.4906C22.4469 35.409 22.3126 35.3546 22.2589 35.3546C22.0173 35.3274 21.7756 35.409 21.5339 35.3818C21.2385 35.3546 21.3191 35.0011 21.2922 34.8107C21.2654 34.3756 21.158 33.9405 21.1043 33.5054C21.0506 33.043 21.0506 32.5807 21.0774 32.1456C21.1043 31.2482 21.158 30.3236 21.3191 29.4533C21.5071 28.5831 21.6413 27.6857 21.8025 26.8154C22.1247 24.9934 22.4469 23.1985 22.4738 21.3493C22.4738 20.4246 22.4469 19.5 22.4201 18.5754C22.4201 18.1131 22.3932 17.6508 22.4201 17.1885C22.4201 16.7533 22.4201 16.291 22.5006 15.8559C22.5543 15.4208 22.796 15.0129 23.1988 14.8769C23.5747 14.7409 24.0044 14.8497 24.3266 15.0673C24.5146 15.2032 24.7026 15.3664 24.8368 15.5568C24.998 15.7743 25.0785 16.0463 25.1859 16.291C25.3202 16.6718 25.4813 17.0525 25.6424 17.4332C25.8035 17.8139 25.8841 18.1947 25.9378 18.6026C25.9915 19.0377 26.1258 19.4728 26.1258 19.9351C26.1258 20.3703 26.0989 20.8054 26.0989 21.2405C26.0989 22.1651 26.0989 23.1169 26.0989 24.0687C26.0989 24.9662 25.9109 25.8364 25.7498 26.7066C25.723 26.9242 25.6693 27.1418 25.6156 27.3593C25.5619 27.5497 25.5081 27.7672 25.4813 27.9576C25.4544 28.1752 25.4276 28.3927 25.4007 28.6103C25.3739 28.8278 25.3202 29.0182 25.3202 29.2358C25.2128 30.106 25.2665 31.0034 25.3202 31.8737C25.4007 32.7983 25.5081 33.6957 25.6156 34.6203C25.6693 35.0827 25.723 35.545 25.8035 36.0073C25.8304 36.2248 25.8841 36.4696 25.8841 36.7143C25.8841 36.9319 25.8841 37.1495 25.8841 37.367C25.8841 37.8021 25.9915 38.2373 26.0452 38.6996C26.0721 38.9171 26.0989 39.1347 26.0989 39.3794C26.0989 39.5426 26.0989 39.7058 26.1526 39.8689C26.2332 40.0593 26.3406 40.1953 26.3675 40.3856C26.3943 40.5216 26.3943 40.6848 26.5017 40.8208C26.5823 40.9023 26.7971 40.9567 26.8239 40.7936C26.9314 40.2225 26.9314 39.6514 26.9582 39.0803C26.9851 38.482 27.0388 37.8837 27.0925 37.2854C27.1999 36.0889 27.1462 34.8651 27.1462 33.6413C27.1462 33.043 27.173 32.4176 27.1193 31.8193C27.0925 31.221 26.9582 30.6771 26.8508 30.106C26.7165 29.5349 26.6628 28.9366 26.5823 28.3655C26.4749 27.7672 26.3674 27.1962 26.26 26.5979C26.2332 26.4347 26.2063 26.3259 26.2332 26.1628C26.2332 25.9724 26.26 25.8092 26.2869 25.6189C26.3137 25.3197 26.3674 25.0206 26.3943 24.7214C26.3943 24.5583 26.0452 24.5039 26.0452 24.667C26.0184 25.2109 25.8572 25.7548 25.8841 26.2987C25.8841 26.5163 25.9647 26.7338 25.9915 26.9514C26.0452 27.2505 26.0989 27.5497 26.1526 27.8216C26.26 28.4199 26.3406 29.0182 26.4211 29.5893C26.5017 30.1604 26.6897 30.7315 26.7434 31.3026C26.8239 31.9009 26.8239 32.5263 26.7971 33.1518C26.7971 34.3756 26.8508 35.5722 26.7703 36.7959C26.7165 37.4486 26.636 38.1285 26.6091 38.7811C26.5823 39.4338 26.5823 40.0865 26.448 40.7392C26.5554 40.7392 26.6628 40.7392 26.7703 40.712C26.6628 40.576 26.6897 40.4128 26.6628 40.2497C26.6091 40.0593 26.4749 39.8961 26.4211 39.7058C26.3674 39.5154 26.3943 39.325 26.3943 39.1347C26.3943 38.9171 26.3406 38.6996 26.3137 38.482C26.2869 38.2644 26.2332 38.0197 26.2063 37.8021C26.1795 37.5574 26.1795 37.3398 26.1795 37.0951C26.1795 36.8775 26.1795 36.66 26.1526 36.4152C26.1258 36.1704 26.0721 35.9257 26.0452 35.6809C25.911 34.7291 25.8035 33.8045 25.6961 32.8527C25.5887 31.9281 25.5082 31.0034 25.535 30.0788C25.5619 29.6165 25.6156 29.1814 25.6693 28.7463C25.6961 28.5287 25.723 28.3111 25.7498 28.0936C25.7767 27.876 25.8304 27.6585 25.8841 27.4681C26.0184 27.033 26.0721 26.5707 26.1526 26.1084C26.2332 25.646 26.3137 25.1837 26.3406 24.7214C26.3674 24.2591 26.3675 23.7696 26.3675 23.3073C26.3675 22.8178 26.3675 22.3283 26.3675 21.866C26.3675 21.4037 26.3674 20.9413 26.3943 20.479C26.3943 20.0439 26.3943 19.6088 26.2869 19.1465C26.2063 18.7114 26.1526 18.2763 26.0452 17.8683C25.9378 17.4604 25.7498 17.1069 25.5887 16.7261C25.4544 16.3998 25.3739 16.0735 25.2396 15.7743C25.1322 15.5568 24.9711 15.3392 24.7563 15.176C24.085 14.5778 22.9034 14.3602 22.3126 15.176C22.1784 15.3664 22.0978 15.6384 22.0441 15.8831C21.9904 16.3182 21.9636 16.7805 21.9636 17.2428C21.9367 18.1947 21.9904 19.1737 22.0173 20.1255C22.0441 21.0773 22.0441 22.0291 21.9636 22.981C21.883 23.9056 21.7219 24.8574 21.5608 25.782C21.3997 26.7066 21.2117 27.6313 21.0774 28.5559C20.9969 28.991 20.8894 29.4261 20.8357 29.8884C20.7552 30.3508 20.7283 30.8131 20.7015 31.2754C20.6478 32.2 20.6209 33.1518 20.7552 34.0764C20.782 34.294 20.8357 34.5116 20.8626 34.7291C20.8895 34.9195 20.8626 35.137 20.9163 35.3274C20.97 35.5994 21.2117 35.7081 21.4534 35.7353C21.695 35.7625 21.9367 35.6809 22.1784 35.6809C22.1247 35.6266 22.071 35.5722 22.0173 35.545C22.0173 35.5722 22.0173 35.5722 21.9904 35.5722C22.0441 35.5994 22.0978 35.5994 22.1515 35.6265C21.9904 35.4906 21.9904 35.2458 21.9636 35.0555C21.9367 34.8107 21.8561 34.566 21.8561 34.3212C21.8561 34.0764 21.883 33.8317 21.883 33.5869C21.883 33.3422 21.8562 33.0974 21.8293 32.8527C21.7756 32.3088 21.7756 31.7921 21.7219 31.2482C21.6682 30.7315 21.5608 30.1876 21.4534 29.6709C21.3459 29.1542 21.2654 28.6375 21.2654 28.0936C21.2385 27.5497 21.2654 27.0058 21.2654 26.4619C21.2654 26.1899 21.2654 25.9452 21.2654 25.6732C21.2922 25.4285 21.3191 25.1837 21.3459 24.939C21.3997 24.3951 21.3728 23.8512 21.3728 23.3345C21.3728 22.2739 21.3997 21.2405 21.2117 20.2071C21.1311 19.6904 20.9969 19.1737 20.8894 18.657C20.8089 18.2763 20.7283 17.8955 20.6209 17.5148C20.4598 16.9437 20.245 16.2638 19.6811 15.9375C19.3588 15.7471 18.9829 15.7471 18.6338 15.7743C18.2578 15.8015 17.7745 15.9103 17.5328 16.2638C17.4523 16.3998 17.4254 16.5902 17.4254 16.7533C17.4254 16.9709 17.4523 17.1885 17.4523 17.4332C17.4523 17.9499 17.4791 18.4938 17.4523 19.0105C17.4254 19.5272 17.3448 20.0711 17.3448 20.5878C17.3448 20.8326 17.3449 21.0773 17.318 21.2949C17.2911 21.5396 17.2374 21.7844 17.2374 22.0291C17.2374 22.3011 17.2374 22.5458 17.2106 22.8178C17.1837 23.0625 17.13 23.3345 17.0763 23.5792C16.9689 24.0959 16.8883 24.6126 16.7541 25.1022C16.6198 25.5917 16.4587 26.0812 16.3781 26.5979C16.3513 26.8426 16.3781 27.1146 16.3781 27.3593C16.3781 27.6041 16.3781 27.876 16.3781 28.1208C16.3781 29.2086 16.405 30.2692 16.3513 31.357C16.3244 31.9009 16.2707 32.4176 16.217 32.9615C16.1633 33.4238 16.1096 33.8861 16.1096 34.3484C16.1096 34.5388 16.1096 34.7835 16.1633 35.0011C16.217 35.1642 16.3781 35.2458 16.4587 35.409C16.5661 35.5722 16.5661 35.7625 16.7272 35.8713C16.8615 35.9801 17.0495 36.0073 17.2106 36.0345C17.3986 36.0345 17.5597 36.0345 17.7476 36.0345C17.9356 36.0073 18.1504 36.0345 18.3384 36.0345C18.5801 36.0345 18.8486 36.0617 19.0903 36.0073C19.1977 35.9801 19.3051 35.9529 19.4125 35.9257C19.5468 35.8985 19.6811 35.9257 19.8153 35.9257C20.057 35.9257 20.2987 35.8713 20.5404 35.8441C20.782 35.8169 21.0237 35.8169 21.2654 35.8169C21.7756 35.8169 22.2858 35.7897 22.796 35.8713C23.0377 35.8985 23.3062 35.9529 23.5479 36.0345C23.6553 36.0617 23.7627 36.0889 23.8701 36.1161C23.9775 36.1432 24.0581 36.2248 24.1655 36.2792C24.2729 36.3336 24.3535 36.3336 24.4877 36.3608C24.622 36.3608 24.7026 36.4152 24.81 36.4696C24.9979 36.5784 25.2128 36.6871 25.347 36.8503C25.6693 37.1495 25.7498 37.6118 25.8304 38.0197C25.8841 38.2644 25.9378 38.5092 25.9378 38.7811C25.9378 39.0259 25.9378 39.2707 25.9915 39.5154C26.0452 39.7602 26.1258 39.9777 26.1526 40.2225C26.1526 40.4672 26.1795 40.712 26.2063 40.9567C26.2869 41.4734 26.4211 41.9357 26.5554 42.4253C26.6091 42.67 26.6628 42.8876 26.6897 43.1323C26.6897 43.3771 26.6628 43.6218 26.6628 43.8666C26.6897 43.8394 27.0388 43.8938 27.0388 43.7306Z" fill="#DE968D"/>
<path d="M27.0388 43.7306C27.0388 43.4859 27.0656 43.2139 27.0656 42.9691C27.0656 42.7244 27.0119 42.5068 26.9582 42.2621C26.8239 41.7726 26.6628 41.3103 26.6091 40.8208C26.5823 40.576 26.5554 40.3041 26.5554 40.0593C26.5554 39.8146 26.4749 39.597 26.4211 39.3522C26.3674 39.1075 26.3674 38.8627 26.3406 38.618C26.3406 38.3732 26.3137 38.1557 26.26 37.9109C26.1526 37.503 26.0989 37.0679 25.8304 36.7143C25.6961 36.5512 25.5619 36.4424 25.3739 36.3336C25.1859 36.1976 24.9711 36.0617 24.7563 36.0073C24.6489 35.9801 24.5415 36.0073 24.434 35.9529C24.3266 35.9257 24.2729 35.8441 24.1655 35.7897C23.9507 35.7081 23.709 35.6265 23.4942 35.5722C23.0108 35.4634 22.5006 35.4362 21.9904 35.409C21.5071 35.409 20.9968 35.3818 20.5135 35.4362C20.2718 35.4634 20.0302 35.5178 19.7885 35.5178C19.6542 35.5178 19.5468 35.5178 19.4125 35.5178C19.3051 35.545 19.1709 35.5722 19.0634 35.5994C18.8218 35.6537 18.5532 35.6265 18.3116 35.6265C18.1236 35.6265 17.9356 35.6265 17.7208 35.6265C17.5597 35.6265 17.3717 35.6537 17.1837 35.6265C16.9958 35.5994 16.9689 35.4362 16.8883 35.3002C16.8615 35.2186 16.8078 35.137 16.7541 35.0826C16.7004 35.0283 16.6198 34.9739 16.593 34.8923C16.4856 34.7291 16.5124 34.43 16.5124 34.2396C16.5124 33.7773 16.5661 33.315 16.6198 32.8527C16.7272 31.7921 16.7809 30.7315 16.7809 29.6709C16.7809 29.127 16.7809 28.5831 16.7809 28.0392C16.7809 27.7944 16.7809 27.5225 16.7809 27.2777C16.7809 27.033 16.7541 26.7882 16.7809 26.5435C16.8346 26.0268 17.0226 25.5373 17.1569 25.0206C17.2911 24.5039 17.3717 23.9872 17.4791 23.4977C17.5328 23.2529 17.5865 22.981 17.6134 22.7362C17.6402 22.4914 17.6402 22.2195 17.6402 21.9747C17.6402 21.73 17.6939 21.4852 17.7208 21.2405C17.7477 20.9957 17.7476 20.751 17.7476 20.5062C17.7476 19.9895 17.8282 19.4728 17.8551 18.9561C17.8819 18.4122 17.8551 17.8955 17.8551 17.3516C17.8551 17.1341 17.8551 16.9165 17.8282 16.699C17.8282 16.5086 17.8282 16.3454 17.9625 16.2094C18.2578 15.8831 18.7681 15.8831 19.1708 15.9103C19.7885 15.9647 20.0838 16.6718 20.245 17.1885C20.3524 17.5148 20.4061 17.8411 20.4866 18.1675C20.5941 18.6842 20.7283 19.1737 20.8357 19.6904C20.9431 20.2071 21.0237 20.7238 21.0506 21.2677C21.0774 21.7844 21.0506 22.3283 21.0506 22.845C21.0506 23.3889 21.0506 23.9328 21.0506 24.4767C21.0237 24.9934 20.9432 25.4829 20.9432 25.9996C20.9432 26.5435 20.9432 27.0874 20.9432 27.6585C20.9432 28.1752 20.9969 28.6919 21.0774 29.1814C21.158 29.6981 21.2922 30.2148 21.3728 30.7587C21.4534 31.3026 21.4802 31.8465 21.5071 32.3904C21.5339 32.6351 21.5339 32.9071 21.5608 33.1518C21.5876 33.3966 21.5608 33.6413 21.5608 33.9133C21.5608 34.158 21.5608 34.4028 21.6145 34.6475C21.6682 34.8651 21.6682 35.0827 21.7219 35.3002C21.7756 35.4634 21.8561 35.6809 22.0441 35.7081C22.2052 35.7353 22.3932 35.6537 22.4201 35.4906C22.4469 35.409 22.3126 35.3546 22.2589 35.3546C22.0173 35.3274 21.7756 35.409 21.5339 35.3818C21.2385 35.3546 21.3191 35.0011 21.2922 34.8107C21.2654 34.3756 21.158 33.9405 21.1043 33.5054C21.0506 33.043 21.0506 32.5807 21.0774 32.1456C21.1043 31.2482 21.158 30.3236 21.3191 29.4533C21.5071 28.5831 21.6413 27.6857 21.8025 26.8154C22.1247 24.9934 22.4469 23.1985 22.4738 21.3493C22.4738 20.4246 22.4469 19.5 22.4201 18.5754C22.4201 18.1131 22.3932 17.6508 22.4201 17.1885C22.4201 16.7533 22.4201 16.291 22.5006 15.8559C22.5543 15.4208 22.796 15.0129 23.1988 14.8769C23.5747 14.7409 24.0044 14.8497 24.3266 15.0673C24.5146 15.2032 24.7026 15.3664 24.8368 15.5568C24.998 15.7743 25.0785 16.0463 25.1859 16.291C25.3202 16.6718 25.4813 17.0525 25.6424 17.4332C25.8035 17.8139 25.8841 18.1947 25.9378 18.6026C25.9915 19.0377 26.1258 19.4728 26.1258 19.9351C26.1258 20.3703 26.0989 20.8054 26.0989 21.2405C26.0989 22.1651 26.0989 23.1169 26.0989 24.0687C26.0989 24.9662 25.9109 25.8364 25.7498 26.7066C25.723 26.9242 25.6693 27.1418 25.6156 27.3593C25.5619 27.5497 25.5081 27.7672 25.4813 27.9576C25.4544 28.1752 25.4276 28.3927 25.4007 28.6103C25.3739 28.8278 25.3202 29.0182 25.3202 29.2358C25.2128 30.106 25.2665 31.0034 25.3202 31.8737C25.4007 32.7983 25.5081 33.6957 25.6156 34.6203C25.6693 35.0827 25.723 35.545 25.8035 36.0073C25.8304 36.2248 25.8841 36.4696 25.8841 36.7143C25.8841 36.9319 25.8841 37.1495 25.8841 37.367C25.8841 37.8021 25.9915 38.2373 26.0452 38.6996C26.0721 38.9171 26.0989 39.1347 26.0989 39.3794C26.0989 39.5426 26.0989 39.7058 26.1526 39.8689C26.2332 40.0593 26.3406 40.1953 26.3675 40.3856C26.3943 40.5216 26.3943 40.6848 26.5017 40.8208C26.5823 40.9023 26.7971 40.9567 26.8239 40.7936C26.9314 40.2225 26.9314 39.6514 26.9582 39.0803C26.9851 38.482 27.0388 37.8837 27.0925 37.2854C27.1999 36.0889 27.1462 34.8651 27.1462 33.6413C27.1462 33.043 27.173 32.4176 27.1193 31.8193C27.0925 31.221 26.9582 30.6771 26.8508 30.106C26.7165 29.5349 26.6628 28.9366 26.5823 28.3655C26.4749 27.7672 26.3674 27.1962 26.26 26.5979C26.2332 26.4347 26.2063 26.3259 26.2332 26.1628C26.2332 25.9724 26.26 25.8092 26.2869 25.6189C26.3137 25.3197 26.3674 25.0206 26.3943 24.7214C26.3943 24.5583 26.0452 24.5039 26.0452 24.667C26.0184 25.2109 25.8572 25.7548 25.8841 26.2987C25.8841 26.5163 25.9647 26.7338 25.9915 26.9514C26.0452 27.2505 26.0989 27.5497 26.1526 27.8216C26.26 28.4199 26.3406 29.0182 26.4211 29.5893C26.5017 30.1604 26.6897 30.7315 26.7434 31.3026C26.8239 31.9009 26.8239 32.5263 26.7971 33.1518C26.7971 34.3756 26.8508 35.5722 26.7703 36.7959C26.7165 37.4486 26.636 38.1285 26.6091 38.7811C26.5823 39.4338 26.5823 40.0865 26.448 40.7392C26.5554 40.7392 26.6628 40.7392 26.7703 40.712C26.6628 40.576 26.6897 40.4128 26.6628 40.2497C26.6091 40.0593 26.4749 39.8961 26.4211 39.7058C26.3674 39.5154 26.3943 39.325 26.3943 39.1347C26.3943 38.9171 26.3406 38.6996 26.3137 38.482C26.2869 38.2644 26.2332 38.0197 26.2063 37.8021C26.1795 37.5574 26.1795 37.3398 26.1795 37.0951C26.1795 36.8775 26.1795 36.66 26.1526 36.4152C26.1258 36.1704 26.0721 35.9257 26.0452 35.6809C25.911 34.7291 25.8035 33.8045 25.6961 32.8527C25.5887 31.9281 25.5082 31.0034 25.535 30.0788C25.5619 29.6165 25.6156 29.1814 25.6693 28.7463C25.6961 28.5287 25.723 28.3111 25.7498 28.0936C25.7767 27.876 25.8304 27.6585 25.8841 27.4681C26.0184 27.033 26.0721 26.5707 26.1526 26.1084C26.2332 25.646 26.3137 25.1837 26.3406 24.7214C26.3674 24.2591 26.3675 23.7696 26.3675 23.3073C26.3675 22.8178 26.3675 22.3283 26.3675 21.866C26.3675 21.4037 26.3674 20.9413 26.3943 20.479C26.3943 20.0439 26.3943 19.6088 26.2869 19.1465C26.2063 18.7114 26.1526 18.2763 26.0452 17.8683C25.9378 17.4604 25.7498 17.1069 25.5887 16.7261C25.4544 16.3998 25.3739 16.0735 25.2396 15.7743C25.1322 15.5568 24.9711 15.3392 24.7563 15.176C24.085 14.5778 22.9034 14.3602 22.3126 15.176C22.1784 15.3664 22.0978 15.6384 22.0441 15.8831C21.9904 16.3182 21.9636 16.7805 21.9636 17.2428C21.9367 18.1947 21.9904 19.1737 22.0173 20.1255C22.0441 21.0773 22.0441 22.0291 21.9636 22.981C21.883 23.9056 21.7219 24.8574 21.5608 25.782C21.3997 26.7066 21.2117 27.6313 21.0774 28.5559C20.9969 28.991 20.8894 29.4261 20.8357 29.8884C20.7552 30.3508 20.7283 30.8131 20.7015 31.2754C20.6478 32.2 20.6209 33.1518 20.7552 34.0764C20.782 34.294 20.8357 34.5116 20.8626 34.7291C20.8895 34.9195 20.8626 35.137 20.9163 35.3274C20.97 35.5994 21.2117 35.7081 21.4534 35.7353C21.695 35.7625 21.9367 35.6809 22.1784 35.6809C22.1247 35.6266 22.071 35.5722 22.0173 35.545C22.0173 35.5722 22.0173 35.5722 21.9904 35.5722C22.0441 35.5994 22.0978 35.5994 22.1515 35.6265C21.9904 35.4906 21.9904 35.2458 21.9636 35.0555C21.9367 34.8107 21.8561 34.566 21.8561 34.3212C21.8561 34.0764 21.883 33.8317 21.883 33.5869C21.883 33.3422 21.8562 33.0974 21.8293 32.8527C21.7756 32.3088 21.7756 31.7921 21.7219 31.2482C21.6682 30.7315 21.5608 30.1876 21.4534 29.6709C21.3459 29.1542 21.2654 28.6375 21.2654 28.0936C21.2385 27.5497 21.2654 27.0058 21.2654 26.4619C21.2654 26.1899 21.2654 25.9452 21.2654 25.6732C21.2922 25.4285 21.3191 25.1837 21.3459 24.939C21.3997 24.3951 21.3728 23.8512 21.3728 23.3345C21.3728 22.2739 21.3997 21.2405 21.2117 20.2071C21.1311 19.6904 20.9969 19.1737 20.8894 18.657C20.8089 18.2763 20.7283 17.8955 20.6209 17.5148C20.4598 16.9437 20.245 16.2638 19.6811 15.9375C19.3588 15.7471 18.9829 15.7471 18.6338 15.7743C18.2578 15.8015 17.7745 15.9103 17.5328 16.2638C17.4523 16.3998 17.4254 16.5902 17.4254 16.7533C17.4254 16.9709 17.4523 17.1885 17.4523 17.4332C17.4523 17.9499 17.4791 18.4938 17.4523 19.0105C17.4254 19.5272 17.3448 20.0711 17.3448 20.5878C17.3448 20.8326 17.3449 21.0773 17.318 21.2949C17.2911 21.5396 17.2374 21.7844 17.2374 22.0291C17.2374 22.3011 17.2374 22.5458 17.2106 22.8178C17.1837 23.0625 17.13 23.3345 17.0763 23.5792C16.9689 24.0959 16.8883 24.6126 16.7541 25.1022C16.6198 25.5917 16.4587 26.0812 16.3781 26.5979C16.3513 26.8426 16.3781 27.1146 16.3781 27.3593C16.3781 27.6041 16.3781 27.876 16.3781 28.1208C16.3781 29.2086 16.405 30.2692 16.3513 31.357C16.3244 31.9009 16.2707 32.4176 16.217 32.9615C16.1633 33.4238 16.1096 33.8861 16.1096 34.3484C16.1096 34.5388 16.1096 34.7835 16.1633 35.0011C16.217 35.1642 16.3781 35.2458 16.4587 35.409C16.5661 35.5722 16.5661 35.7625 16.7272 35.8713C16.8615 35.9801 17.0495 36.0073 17.2106 36.0345C17.3986 36.0345 17.5597 36.0345 17.7476 36.0345C17.9356 36.0073 18.1504 36.0345 18.3384 36.0345C18.5801 36.0345 18.8486 36.0617 19.0903 36.0073C19.1977 35.9801 19.3051 35.9529 19.4125 35.9257C19.5468 35.8985 19.6811 35.9257 19.8153 35.9257C20.057 35.9257 20.2987 35.8713 20.5404 35.8441C20.782 35.8169 21.0237 35.8169 21.2654 35.8169C21.7756 35.8169 22.2858 35.7897 22.796 35.8713C23.0377 35.8985 23.3062 35.9529 23.5479 36.0345C23.6553 36.0617 23.7627 36.0889 23.8701 36.1161C23.9775 36.1432 24.0581 36.2248 24.1655 36.2792C24.2729 36.3336 24.3535 36.3336 24.4877 36.3608C24.622 36.3608 24.7026 36.4152 24.81 36.4696C24.9979 36.5784 25.2128 36.6871 25.347 36.8503C25.6693 37.1495 25.7498 37.6118 25.8304 38.0197C25.8841 38.2644 25.9378 38.5092 25.9378 38.7811C25.9378 39.0259 25.9378 39.2707 25.9915 39.5154C26.0452 39.7602 26.1258 39.9777 26.1526 40.2225C26.1526 40.4672 26.1795 40.712 26.2063 40.9567C26.2869 41.4734 26.4211 41.9357 26.5554 42.4253C26.6091 42.67 26.6628 42.8876 26.6897 43.1323C26.6897 43.3771 26.6628 43.6218 26.6628 43.8666C26.6897 43.8394 27.0388 43.8938 27.0388 43.7306Z" stroke="#DE968D" mask="url(#path-2-outside-2_5114_2243)"/>
<mask id="path-3-outside-3_5114_2243" maskUnits="userSpaceOnUse" x="37.1221" y="-1" width="42" height="68" fill="black">
<rect fill="white" x="37.1221" y="-1" width="42" height="68"/>
<path d="M74.9713 65.4049C74.6222 65.1058 74.3269 64.8066 74.0046 64.4803C73.6555 64.1268 73.2527 63.8548 72.8499 63.5557C72.0712 63.0118 71.3193 62.3591 70.5943 61.7608C69.8155 61.1353 69.0637 60.5098 68.2849 59.8844C67.4793 59.2589 66.6738 58.6606 65.8145 58.1167C65.0089 57.5728 64.2033 57.0289 63.3977 56.485C62.5921 55.9411 61.7328 55.4244 60.9272 54.8805C60.0948 54.3094 59.2355 53.7927 58.3225 53.3576C57.4632 52.9225 56.6039 52.5146 55.8251 51.9979C54.214 50.9373 52.8713 49.5775 51.5287 48.1906C50.8573 47.4835 50.3471 46.6677 49.8906 45.8246C49.4341 44.9816 48.9776 44.193 48.6554 43.2955C48.3332 42.3437 47.9572 41.3647 47.7961 40.3585C47.7156 39.8962 47.6887 39.4339 47.6618 38.9715C47.635 38.4276 47.6618 37.9109 47.6081 37.3671C47.5544 36.8775 47.5007 36.4152 47.5007 35.9529C47.5007 35.4362 47.5007 34.9467 47.5007 34.43C47.5007 33.3966 47.5813 32.3904 47.635 31.357C47.6618 30.8947 47.7424 30.4596 47.7693 29.9973C47.823 29.4534 47.823 28.8823 47.8498 28.3384C47.8767 27.8217 47.8767 27.2778 47.9572 26.7339C47.9841 26.5435 48.0378 26.3531 48.0915 26.1628C48.1452 25.8908 48.1452 25.6189 48.2258 25.3469C48.3869 24.8846 48.548 24.4495 48.6554 23.9872C48.7897 23.4977 48.9508 23.0354 49.0851 22.5459C49.3536 21.6212 49.9175 20.8598 50.2129 19.9624C50.3471 19.5816 50.4814 19.2009 50.5351 18.793C50.5888 18.2763 50.6425 17.7868 50.7231 17.2701C50.8305 16.3183 50.9648 15.3664 50.9648 14.4146C50.9648 13.9523 51.0185 13.4628 50.9379 13.0005C50.8574 12.511 50.6694 12.0487 50.5351 11.5592C50.2934 10.5801 50.0786 9.54674 50.1055 8.56773C50.1323 7.6975 50.3203 6.82726 50.4814 5.98422C50.6425 5.27716 50.7768 4.5429 51.0185 3.86302C51.1259 3.56388 51.2601 3.26474 51.3944 2.9656C51.5555 2.55767 51.7972 1.85061 52.3074 1.74183C52.4685 1.71463 52.7371 1.71463 52.8713 1.85061C52.9787 1.95939 53.0056 2.17695 53.0593 2.31292C53.2204 2.80243 53.1667 3.26474 53.2473 3.75424C53.3278 4.35253 53.4084 4.95082 53.4889 5.54911C53.5964 6.33776 53.8112 7.09921 54.026 7.86067C54.1603 8.32298 54.2677 8.78529 54.3482 9.2476C54.4288 9.70991 54.4825 10.1994 54.5899 10.6617C54.6973 11.0968 54.8316 11.532 54.8584 11.9943C54.8853 12.511 54.9658 13.0005 55.0196 13.5172C55.1001 14.5234 55.0733 15.5024 55.0733 16.5086C55.0733 16.9981 55.0464 17.4876 55.0733 18.0043C55.1001 18.4666 55.2344 18.8746 55.3418 19.3369C55.7983 21.2949 55.6372 23.3345 55.9863 25.2925C56.1474 26.2716 56.4696 27.2234 56.6845 28.1752C56.9261 29.1814 57.0067 30.1876 57.2215 31.1938C57.5169 32.608 57.9197 33.9949 58.3493 35.3818C58.4299 35.6538 58.5105 35.8985 58.5642 36.1705C58.591 36.2793 58.591 36.388 58.6179 36.4696C58.6179 36.4968 58.6179 36.5784 58.6179 36.6056C58.6447 36.6872 58.4836 36.66 58.6716 36.6056C58.7253 36.6056 58.779 36.6056 58.8058 36.6056C58.5373 36.3608 58.4836 35.9801 58.3493 35.6538C58.1882 35.2187 58.0271 34.8107 57.9197 34.3756C57.7317 33.5326 57.6243 32.6623 57.5169 31.8193C57.3021 30.0788 57.1141 28.3384 57.0604 26.5707C57.0335 25.7005 57.0067 24.803 57.0335 23.9328C57.0604 23.0626 57.1947 22.1923 57.2484 21.3221C57.2752 20.4247 57.2484 19.5272 57.2484 18.6298C57.2484 17.7324 57.2484 16.8078 57.2484 15.9103C57.2484 15.0129 57.3289 14.1155 57.2484 13.218C57.1678 12.4022 56.953 11.5864 56.765 10.7977C56.3891 9.30199 56.1474 7.77908 56.0937 6.22898C56.0668 5.5763 56.0937 4.92362 56.1205 4.27095C56.1742 3.56388 56.3354 2.91121 56.4696 2.23134C56.577 1.63305 56.577 0.980373 56.1742 0.490866C55.7446 -0.0258356 55.2344 -0.134614 54.6168 0.164529C54.1334 0.409282 53.5963 0.762816 53.2741 1.19793C53.113 1.44269 53.0593 1.71463 53.0593 2.01378C53.0593 2.44889 53.0324 2.85682 52.9787 3.29193C52.925 3.89022 52.9519 4.48851 52.9519 5.08679C52.9519 5.65788 52.9519 6.22898 52.9519 6.77287C52.9519 7.64311 53.0324 8.48614 53.113 9.32918C53.1936 10.2266 53.2473 11.124 53.3278 11.9943C53.5158 13.7619 53.7843 15.5024 54.1334 17.2157C54.4825 18.9833 54.9122 20.7238 55.3418 22.4643C55.7715 24.2048 56.1474 25.9724 56.4696 27.7401C56.8187 29.4805 57.0872 31.2482 57.4632 33.0159C57.6243 33.7773 57.9734 34.4572 58.2956 35.1643C58.591 35.8169 58.8595 36.66 59.3698 37.2039C59.88 37.7478 60.605 38.1285 61.2495 38.482C62.0013 38.89 62.7532 39.2707 63.4782 39.7058C64.982 40.6032 66.4858 41.5007 68.0164 42.3709C68.7414 42.806 69.4665 43.2411 70.1646 43.7306C70.8091 44.1658 71.4804 44.5465 72.2055 44.8728C72.9573 45.1992 73.7092 45.3895 74.4611 45.7159C75.1861 46.0422 75.9112 46.3413 76.663 46.5589C76.9584 46.6405 77.2538 46.7493 77.5492 46.8308C77.764 46.8852 78.1668 46.9668 78.1668 47.266C78.1937 47.2116 78.2205 47.1844 78.2474 47.13C77.8714 47.4291 77.1733 47.3476 76.7436 47.266C76.1528 47.1572 75.5889 46.8852 75.0519 46.6405C73.924 46.151 72.8768 45.5255 71.8295 44.9272C70.7285 44.3017 69.7081 43.6219 68.7414 42.8332C67.7747 42.0718 66.8886 41.2287 65.9219 40.4401C64.982 39.6786 63.9884 38.9987 62.968 38.3733C61.9745 37.7206 60.9272 37.1495 59.7994 36.796C58.6179 36.4424 57.3826 36.3336 56.1742 36.0617C54.939 35.7626 53.6769 35.409 52.4685 35.0555C51.2333 34.702 50.0249 34.294 48.8971 33.6958C47.7961 33.1247 46.7757 32.4176 45.7553 31.6833C44.3589 30.6771 42.882 29.6437 41.1903 29.263C40.5189 29.0998 39.7671 29.0454 39.1226 29.3718C38.4244 29.7253 37.9948 30.4324 38.1559 31.221C38.317 32.0369 38.8809 32.7439 39.4448 33.2878C40.0893 33.9405 40.7338 34.566 41.3245 35.3002C41.969 36.1161 42.5866 36.9591 43.1506 37.8294C43.6876 38.6452 44.0636 39.5698 44.708 40.3041C45.3256 41.0383 46.1044 41.5822 46.6951 42.3437C47.0979 42.8332 47.3933 43.3771 47.7424 43.8938C48.0378 44.3561 48.3332 44.9 48.7628 45.2535C48.9508 45.4167 49.085 45.5527 49.2462 45.7159C49.3536 45.8518 49.461 45.9334 49.649 45.9334C49.7832 45.9334 49.998 45.7159 49.7832 45.6887C49.5953 45.6615 49.3267 45.2807 49.1656 45.1448C48.8971 44.9272 48.7091 44.6825 48.4943 44.3833C48.0915 43.7578 47.6887 43.1052 47.2591 42.5069C46.5877 41.555 45.6479 40.9296 44.9228 40.0321C44.5469 39.5698 44.2784 39.0803 43.983 38.5636C43.7145 38.0741 43.4191 37.6118 43.0968 37.1495C42.4255 36.1705 41.7273 35.2187 40.9217 34.3212C40.2504 33.587 39.4448 32.9615 38.9078 32.1185C38.6392 31.6833 38.3976 31.1938 38.4244 30.6771C38.4513 30.106 38.8272 29.6437 39.3374 29.4534C40.2504 29.127 41.3245 29.5349 42.157 29.8885C43.0163 30.242 43.8219 30.7315 44.5738 31.2482C45.7553 32.0913 46.91 32.9615 48.172 33.6686C49.4341 34.3756 50.7768 34.8379 52.1731 35.2459C53.5695 35.6538 54.9927 36.0889 56.4159 36.388C57.8391 36.6872 59.2892 36.8232 60.6318 37.4214C61.9208 37.9925 63.1023 38.8084 64.257 39.6242C65.4385 40.4401 66.4858 41.3919 67.5868 42.3165C68.6877 43.2411 69.8156 44.1386 71.0508 44.8456C72.286 45.5527 73.4944 46.2598 74.7833 46.858C75.7769 47.2932 76.9047 47.8099 78.0057 47.4835C78.3011 47.4019 78.7039 47.1572 78.3816 46.8308C78.0863 46.5589 77.4955 46.5045 77.1196 46.3685C75.7769 45.9606 74.5685 45.3351 73.2259 44.9C71.8832 44.4649 70.8091 43.7034 69.6276 42.942C68.3923 42.1533 67.1302 41.4191 65.8682 40.6576C64.6061 39.9234 63.3708 39.1347 62.055 38.482C61.4643 38.1829 60.8735 37.8566 60.3096 37.4758C60.0679 37.3127 59.7994 37.1223 59.5846 36.8775C59.3697 36.6056 59.2086 36.2793 59.0743 35.9529C58.779 35.3274 58.4836 34.7292 58.2151 34.1037C57.9197 33.4238 57.7586 32.7167 57.6243 31.9825C57.0604 28.991 56.5233 25.9724 55.8251 22.981C55.127 20.0711 54.4019 17.1885 53.9723 14.2243C53.7575 12.7285 53.6232 11.2056 53.4889 9.68272C53.3815 8.37737 53.2741 7.09921 53.2741 5.79386C53.2741 4.76045 53.2473 3.69986 53.3547 2.66645C53.3815 2.34011 53.3547 1.98658 53.3815 1.66024C53.4084 1.30671 53.6232 1.06196 53.8649 0.8444C54.0797 0.654036 54.3214 0.490866 54.5631 0.354892C54.9659 0.137333 55.3149 0.137334 55.664 0.463672C56.6576 1.3883 55.9057 2.74804 55.7983 3.86302C55.6909 4.92362 55.6909 6.01142 55.7715 7.07201C55.8789 8.43176 56.1205 9.7915 56.4696 11.124C56.6307 11.7767 56.7919 12.4566 56.8724 13.1365C56.9798 13.8435 56.8993 14.605 56.8993 15.3392C56.8993 16.8893 56.8724 18.4395 56.8993 20.0168C56.8993 20.7782 56.8993 21.5397 56.8187 22.3011C56.7382 23.0354 56.6844 23.7696 56.6576 24.5311C56.6307 27.4953 56.8993 30.4324 57.3289 33.3694C57.4363 33.9949 57.5438 34.6476 57.7586 35.273C57.866 35.5722 58.0002 35.8713 58.1076 36.1977C58.1882 36.4424 58.2688 36.66 58.4567 36.8232C58.4836 36.8503 58.5642 36.8232 58.591 36.8232C58.967 36.6872 58.8327 36.1977 58.779 35.8985C58.6716 35.409 58.5104 34.9467 58.3493 34.4844C58.0539 33.6414 57.866 32.7711 57.6512 31.9281C57.4095 30.9219 57.3021 29.9157 57.1141 28.9095C56.9261 27.8761 56.6039 26.8698 56.3622 25.8636C56.1205 24.8302 56.0668 23.7968 55.9863 22.7362C55.9325 21.7028 55.852 20.6966 55.664 19.6632C55.5835 19.2009 55.4492 18.7386 55.3687 18.2763C55.2881 17.7868 55.2881 17.2701 55.3149 16.7806C55.3149 15.72 55.3686 14.6594 55.2881 13.5988C55.2075 12.6198 55.127 11.6407 54.8853 10.6889C54.751 10.1994 54.6973 9.70991 54.6168 9.22041C54.5362 8.7309 54.4019 8.24139 54.2677 7.77908C54.0528 6.99043 53.838 6.17458 53.7306 5.35874C53.6501 4.73326 53.5427 4.13497 53.4889 3.50949C53.4352 3.01999 53.4352 2.58487 53.301 2.12256C53.2204 1.85061 53.1399 1.63305 52.8445 1.57866C52.1463 1.44268 51.6629 1.905 51.3407 2.47609C50.9916 3.12876 50.6962 3.89022 50.5083 4.62448C50.3203 5.33155 50.1592 6.03861 50.0249 6.74568C49.8369 7.69749 49.6758 8.7037 49.7832 9.68272C49.9175 10.7161 50.1592 11.7223 50.4545 12.7285C50.5888 13.218 50.6157 13.6804 50.6157 14.1971C50.6157 14.7138 50.6425 15.2305 50.5888 15.7472C50.5083 16.7806 50.2666 17.7868 50.2129 18.793C50.1592 19.7992 49.6758 20.7238 49.2193 21.6212C49.0045 22.0564 48.8434 22.4915 48.7091 22.9538C48.5748 23.4433 48.4137 23.9056 48.2795 24.3951C48.1721 24.8846 47.9304 25.3197 47.823 25.8092C47.7693 26.0268 47.7693 26.2716 47.7156 26.5163C47.6619 26.7611 47.6081 26.9786 47.5813 27.2234C47.447 28.284 47.5276 29.3718 47.4202 30.4324C47.3128 31.4658 47.2054 32.4992 47.1785 33.5598C47.1516 34.5932 47.1516 35.6538 47.1785 36.7144C47.1785 37.2039 47.2859 37.6934 47.2859 38.1557C47.2859 38.6996 47.3128 39.2435 47.3665 39.7874C47.447 40.7936 47.6887 41.7182 48.0109 42.67C48.3332 43.6219 48.6285 44.5193 49.1119 45.3895C49.5953 46.2598 50.0518 47.13 50.6425 47.9186C50.9111 48.2722 51.2333 48.5985 51.5555 48.9248C51.9046 49.2784 52.2 49.6319 52.5491 49.9583C53.2741 50.6653 54.0529 51.318 54.8584 51.9163C55.664 52.5146 56.5233 52.9769 57.4095 53.412C58.3225 53.8743 59.2355 54.3366 60.0948 54.9077C60.9541 55.4788 61.8134 56.0227 62.6726 56.5666C63.5319 57.1377 64.3912 57.7088 65.2505 58.3071C66.083 58.8782 66.9423 59.422 67.721 60.0747C68.5535 60.7274 69.3859 61.3801 70.1915 62.06C70.9702 62.7126 71.7221 63.3653 72.5546 63.9364C72.9573 64.2083 73.3064 64.4803 73.6555 64.8066C74.0046 65.133 74.3269 65.4593 74.6759 65.7584C74.8102 65.7041 75.0787 65.5137 74.9713 65.4049Z"/>
</mask>
<path d="M74.9713 65.4049C74.6222 65.1058 74.3269 64.8066 74.0046 64.4803C73.6555 64.1268 73.2527 63.8548 72.8499 63.5557C72.0712 63.0118 71.3193 62.3591 70.5943 61.7608C69.8155 61.1353 69.0637 60.5098 68.2849 59.8844C67.4793 59.2589 66.6738 58.6606 65.8145 58.1167C65.0089 57.5728 64.2033 57.0289 63.3977 56.485C62.5921 55.9411 61.7328 55.4244 60.9272 54.8805C60.0948 54.3094 59.2355 53.7927 58.3225 53.3576C57.4632 52.9225 56.6039 52.5146 55.8251 51.9979C54.214 50.9373 52.8713 49.5775 51.5287 48.1906C50.8573 47.4835 50.3471 46.6677 49.8906 45.8246C49.4341 44.9816 48.9776 44.193 48.6554 43.2955C48.3332 42.3437 47.9572 41.3647 47.7961 40.3585C47.7156 39.8962 47.6887 39.4339 47.6618 38.9715C47.635 38.4276 47.6618 37.9109 47.6081 37.3671C47.5544 36.8775 47.5007 36.4152 47.5007 35.9529C47.5007 35.4362 47.5007 34.9467 47.5007 34.43C47.5007 33.3966 47.5813 32.3904 47.635 31.357C47.6618 30.8947 47.7424 30.4596 47.7693 29.9973C47.823 29.4534 47.823 28.8823 47.8498 28.3384C47.8767 27.8217 47.8767 27.2778 47.9572 26.7339C47.9841 26.5435 48.0378 26.3531 48.0915 26.1628C48.1452 25.8908 48.1452 25.6189 48.2258 25.3469C48.3869 24.8846 48.548 24.4495 48.6554 23.9872C48.7897 23.4977 48.9508 23.0354 49.0851 22.5459C49.3536 21.6212 49.9175 20.8598 50.2129 19.9624C50.3471 19.5816 50.4814 19.2009 50.5351 18.793C50.5888 18.2763 50.6425 17.7868 50.7231 17.2701C50.8305 16.3183 50.9648 15.3664 50.9648 14.4146C50.9648 13.9523 51.0185 13.4628 50.9379 13.0005C50.8574 12.511 50.6694 12.0487 50.5351 11.5592C50.2934 10.5801 50.0786 9.54674 50.1055 8.56773C50.1323 7.6975 50.3203 6.82726 50.4814 5.98422C50.6425 5.27716 50.7768 4.5429 51.0185 3.86302C51.1259 3.56388 51.2601 3.26474 51.3944 2.9656C51.5555 2.55767 51.7972 1.85061 52.3074 1.74183C52.4685 1.71463 52.7371 1.71463 52.8713 1.85061C52.9787 1.95939 53.0056 2.17695 53.0593 2.31292C53.2204 2.80243 53.1667 3.26474 53.2473 3.75424C53.3278 4.35253 53.4084 4.95082 53.4889 5.54911C53.5964 6.33776 53.8112 7.09921 54.026 7.86067C54.1603 8.32298 54.2677 8.78529 54.3482 9.2476C54.4288 9.70991 54.4825 10.1994 54.5899 10.6617C54.6973 11.0968 54.8316 11.532 54.8584 11.9943C54.8853 12.511 54.9658 13.0005 55.0196 13.5172C55.1001 14.5234 55.0733 15.5024 55.0733 16.5086C55.0733 16.9981 55.0464 17.4876 55.0733 18.0043C55.1001 18.4666 55.2344 18.8746 55.3418 19.3369C55.7983 21.2949 55.6372 23.3345 55.9863 25.2925C56.1474 26.2716 56.4696 27.2234 56.6845 28.1752C56.9261 29.1814 57.0067 30.1876 57.2215 31.1938C57.5169 32.608 57.9197 33.9949 58.3493 35.3818C58.4299 35.6538 58.5105 35.8985 58.5642 36.1705C58.591 36.2793 58.591 36.388 58.6179 36.4696C58.6179 36.4968 58.6179 36.5784 58.6179 36.6056C58.6447 36.6872 58.4836 36.66 58.6716 36.6056C58.7253 36.6056 58.779 36.6056 58.8058 36.6056C58.5373 36.3608 58.4836 35.9801 58.3493 35.6538C58.1882 35.2187 58.0271 34.8107 57.9197 34.3756C57.7317 33.5326 57.6243 32.6623 57.5169 31.8193C57.3021 30.0788 57.1141 28.3384 57.0604 26.5707C57.0335 25.7005 57.0067 24.803 57.0335 23.9328C57.0604 23.0626 57.1947 22.1923 57.2484 21.3221C57.2752 20.4247 57.2484 19.5272 57.2484 18.6298C57.2484 17.7324 57.2484 16.8078 57.2484 15.9103C57.2484 15.0129 57.3289 14.1155 57.2484 13.218C57.1678 12.4022 56.953 11.5864 56.765 10.7977C56.3891 9.30199 56.1474 7.77908 56.0937 6.22898C56.0668 5.5763 56.0937 4.92362 56.1205 4.27095C56.1742 3.56388 56.3354 2.91121 56.4696 2.23134C56.577 1.63305 56.577 0.980373 56.1742 0.490866C55.7446 -0.0258356 55.2344 -0.134614 54.6168 0.164529C54.1334 0.409282 53.5963 0.762816 53.2741 1.19793C53.113 1.44269 53.0593 1.71463 53.0593 2.01378C53.0593 2.44889 53.0324 2.85682 52.9787 3.29193C52.925 3.89022 52.9519 4.48851 52.9519 5.08679C52.9519 5.65788 52.9519 6.22898 52.9519 6.77287C52.9519 7.64311 53.0324 8.48614 53.113 9.32918C53.1936 10.2266 53.2473 11.124 53.3278 11.9943C53.5158 13.7619 53.7843 15.5024 54.1334 17.2157C54.4825 18.9833 54.9122 20.7238 55.3418 22.4643C55.7715 24.2048 56.1474 25.9724 56.4696 27.7401C56.8187 29.4805 57.0872 31.2482 57.4632 33.0159C57.6243 33.7773 57.9734 34.4572 58.2956 35.1643C58.591 35.8169 58.8595 36.66 59.3698 37.2039C59.88 37.7478 60.605 38.1285 61.2495 38.482C62.0013 38.89 62.7532 39.2707 63.4782 39.7058C64.982 40.6032 66.4858 41.5007 68.0164 42.3709C68.7414 42.806 69.4665 43.2411 70.1646 43.7306C70.8091 44.1658 71.4804 44.5465 72.2055 44.8728C72.9573 45.1992 73.7092 45.3895 74.4611 45.7159C75.1861 46.0422 75.9112 46.3413 76.663 46.5589C76.9584 46.6405 77.2538 46.7493 77.5492 46.8308C77.764 46.8852 78.1668 46.9668 78.1668 47.266C78.1937 47.2116 78.2205 47.1844 78.2474 47.13C77.8714 47.4291 77.1733 47.3476 76.7436 47.266C76.1528 47.1572 75.5889 46.8852 75.0519 46.6405C73.924 46.151 72.8768 45.5255 71.8295 44.9272C70.7285 44.3017 69.7081 43.6219 68.7414 42.8332C67.7747 42.0718 66.8886 41.2287 65.9219 40.4401C64.982 39.6786 63.9884 38.9987 62.968 38.3733C61.9745 37.7206 60.9272 37.1495 59.7994 36.796C58.6179 36.4424 57.3826 36.3336 56.1742 36.0617C54.939 35.7626 53.6769 35.409 52.4685 35.0555C51.2333 34.702 50.0249 34.294 48.8971 33.6958C47.7961 33.1247 46.7757 32.4176 45.7553 31.6833C44.3589 30.6771 42.882 29.6437 41.1903 29.263C40.5189 29.0998 39.7671 29.0454 39.1226 29.3718C38.4244 29.7253 37.9948 30.4324 38.1559 31.221C38.317 32.0369 38.8809 32.7439 39.4448 33.2878C40.0893 33.9405 40.7338 34.566 41.3245 35.3002C41.969 36.1161 42.5866 36.9591 43.1506 37.8294C43.6876 38.6452 44.0636 39.5698 44.708 40.3041C45.3256 41.0383 46.1044 41.5822 46.6951 42.3437C47.0979 42.8332 47.3933 43.3771 47.7424 43.8938C48.0378 44.3561 48.3332 44.9 48.7628 45.2535C48.9508 45.4167 49.085 45.5527 49.2462 45.7159C49.3536 45.8518 49.461 45.9334 49.649 45.9334C49.7832 45.9334 49.998 45.7159 49.7832 45.6887C49.5953 45.6615 49.3267 45.2807 49.1656 45.1448C48.8971 44.9272 48.7091 44.6825 48.4943 44.3833C48.0915 43.7578 47.6887 43.1052 47.2591 42.5069C46.5877 41.555 45.6479 40.9296 44.9228 40.0321C44.5469 39.5698 44.2784 39.0803 43.983 38.5636C43.7145 38.0741 43.4191 37.6118 43.0968 37.1495C42.4255 36.1705 41.7273 35.2187 40.9217 34.3212C40.2504 33.587 39.4448 32.9615 38.9078 32.1185C38.6392 31.6833 38.3976 31.1938 38.4244 30.6771C38.4513 30.106 38.8272 29.6437 39.3374 29.4534C40.2504 29.127 41.3245 29.5349 42.157 29.8885C43.0163 30.242 43.8219 30.7315 44.5738 31.2482C45.7553 32.0913 46.91 32.9615 48.172 33.6686C49.4341 34.3756 50.7768 34.8379 52.1731 35.2459C53.5695 35.6538 54.9927 36.0889 56.4159 36.388C57.8391 36.6872 59.2892 36.8232 60.6318 37.4214C61.9208 37.9925 63.1023 38.8084 64.257 39.6242C65.4385 40.4401 66.4858 41.3919 67.5868 42.3165C68.6877 43.2411 69.8156 44.1386 71.0508 44.8456C72.286 45.5527 73.4944 46.2598 74.7833 46.858C75.7769 47.2932 76.9047 47.8099 78.0057 47.4835C78.3011 47.4019 78.7039 47.1572 78.3816 46.8308C78.0863 46.5589 77.4955 46.5045 77.1196 46.3685C75.7769 45.9606 74.5685 45.3351 73.2259 44.9C71.8832 44.4649 70.8091 43.7034 69.6276 42.942C68.3923 42.1533 67.1302 41.4191 65.8682 40.6576C64.6061 39.9234 63.3708 39.1347 62.055 38.482C61.4643 38.1829 60.8735 37.8566 60.3096 37.4758C60.0679 37.3127 59.7994 37.1223 59.5846 36.8775C59.3697 36.6056 59.2086 36.2793 59.0743 35.9529C58.779 35.3274 58.4836 34.7292 58.2151 34.1037C57.9197 33.4238 57.7586 32.7167 57.6243 31.9825C57.0604 28.991 56.5233 25.9724 55.8251 22.981C55.127 20.0711 54.4019 17.1885 53.9723 14.2243C53.7575 12.7285 53.6232 11.2056 53.4889 9.68272C53.3815 8.37737 53.2741 7.09921 53.2741 5.79386C53.2741 4.76045 53.2473 3.69986 53.3547 2.66645C53.3815 2.34011 53.3547 1.98658 53.3815 1.66024C53.4084 1.30671 53.6232 1.06196 53.8649 0.8444C54.0797 0.654036 54.3214 0.490866 54.5631 0.354892C54.9659 0.137333 55.3149 0.137334 55.664 0.463672C56.6576 1.3883 55.9057 2.74804 55.7983 3.86302C55.6909 4.92362 55.6909 6.01142 55.7715 7.07201C55.8789 8.43176 56.1205 9.7915 56.4696 11.124C56.6307 11.7767 56.7919 12.4566 56.8724 13.1365C56.9798 13.8435 56.8993 14.605 56.8993 15.3392C56.8993 16.8893 56.8724 18.4395 56.8993 20.0168C56.8993 20.7782 56.8993 21.5397 56.8187 22.3011C56.7382 23.0354 56.6844 23.7696 56.6576 24.5311C56.6307 27.4953 56.8993 30.4324 57.3289 33.3694C57.4363 33.9949 57.5438 34.6476 57.7586 35.273C57.866 35.5722 58.0002 35.8713 58.1076 36.1977C58.1882 36.4424 58.2688 36.66 58.4567 36.8232C58.4836 36.8503 58.5642 36.8232 58.591 36.8232C58.967 36.6872 58.8327 36.1977 58.779 35.8985C58.6716 35.409 58.5104 34.9467 58.3493 34.4844C58.0539 33.6414 57.866 32.7711 57.6512 31.9281C57.4095 30.9219 57.3021 29.9157 57.1141 28.9095C56.9261 27.8761 56.6039 26.8698 56.3622 25.8636C56.1205 24.8302 56.0668 23.7968 55.9863 22.7362C55.9325 21.7028 55.852 20.6966 55.664 19.6632C55.5835 19.2009 55.4492 18.7386 55.3687 18.2763C55.2881 17.7868 55.2881 17.2701 55.3149 16.7806C55.3149 15.72 55.3686 14.6594 55.2881 13.5988C55.2075 12.6198 55.127 11.6407 54.8853 10.6889C54.751 10.1994 54.6973 9.70991 54.6168 9.22041C54.5362 8.7309 54.4019 8.24139 54.2677 7.77908C54.0528 6.99043 53.838 6.17458 53.7306 5.35874C53.6501 4.73326 53.5427 4.13497 53.4889 3.50949C53.4352 3.01999 53.4352 2.58487 53.301 2.12256C53.2204 1.85061 53.1399 1.63305 52.8445 1.57866C52.1463 1.44268 51.6629 1.905 51.3407 2.47609C50.9916 3.12876 50.6962 3.89022 50.5083 4.62448C50.3203 5.33155 50.1592 6.03861 50.0249 6.74568C49.8369 7.69749 49.6758 8.7037 49.7832 9.68272C49.9175 10.7161 50.1592 11.7223 50.4545 12.7285C50.5888 13.218 50.6157 13.6804 50.6157 14.1971C50.6157 14.7138 50.6425 15.2305 50.5888 15.7472C50.5083 16.7806 50.2666 17.7868 50.2129 18.793C50.1592 19.7992 49.6758 20.7238 49.2193 21.6212C49.0045 22.0564 48.8434 22.4915 48.7091 22.9538C48.5748 23.4433 48.4137 23.9056 48.2795 24.3951C48.1721 24.8846 47.9304 25.3197 47.823 25.8092C47.7693 26.0268 47.7693 26.2716 47.7156 26.5163C47.6619 26.7611 47.6081 26.9786 47.5813 27.2234C47.447 28.284 47.5276 29.3718 47.4202 30.4324C47.3128 31.4658 47.2054 32.4992 47.1785 33.5598C47.1516 34.5932 47.1516 35.6538 47.1785 36.7144C47.1785 37.2039 47.2859 37.6934 47.2859 38.1557C47.2859 38.6996 47.3128 39.2435 47.3665 39.7874C47.447 40.7936 47.6887 41.7182 48.0109 42.67C48.3332 43.6219 48.6285 44.5193 49.1119 45.3895C49.5953 46.2598 50.0518 47.13 50.6425 47.9186C50.9111 48.2722 51.2333 48.5985 51.5555 48.9248C51.9046 49.2784 52.2 49.6319 52.5491 49.9583C53.2741 50.6653 54.0529 51.318 54.8584 51.9163C55.664 52.5146 56.5233 52.9769 57.4095 53.412C58.3225 53.8743 59.2355 54.3366 60.0948 54.9077C60.9541 55.4788 61.8134 56.0227 62.6726 56.5666C63.5319 57.1377 64.3912 57.7088 65.2505 58.3071C66.083 58.8782 66.9423 59.422 67.721 60.0747C68.5535 60.7274 69.3859 61.3801 70.1915 62.06C70.9702 62.7126 71.7221 63.3653 72.5546 63.9364C72.9573 64.2083 73.3064 64.4803 73.6555 64.8066C74.0046 65.133 74.3269 65.4593 74.6759 65.7584C74.8102 65.7041 75.0787 65.5137 74.9713 65.4049Z" fill="#DE968D"/>
<path d="M74.9713 65.4049C74.6222 65.1058 74.3269 64.8066 74.0046 64.4803C73.6555 64.1268 73.2527 63.8548 72.8499 63.5557C72.0712 63.0118 71.3193 62.3591 70.5943 61.7608C69.8155 61.1353 69.0637 60.5098 68.2849 59.8844C67.4793 59.2589 66.6738 58.6606 65.8145 58.1167C65.0089 57.5728 64.2033 57.0289 63.3977 56.485C62.5921 55.9411 61.7328 55.4244 60.9272 54.8805C60.0948 54.3094 59.2355 53.7927 58.3225 53.3576C57.4632 52.9225 56.6039 52.5146 55.8251 51.9979C54.214 50.9373 52.8713 49.5775 51.5287 48.1906C50.8573 47.4835 50.3471 46.6677 49.8906 45.8246C49.4341 44.9816 48.9776 44.193 48.6554 43.2955C48.3332 42.3437 47.9572 41.3647 47.7961 40.3585C47.7156 39.8962 47.6887 39.4339 47.6618 38.9715C47.635 38.4276 47.6618 37.9109 47.6081 37.3671C47.5544 36.8775 47.5007 36.4152 47.5007 35.9529C47.5007 35.4362 47.5007 34.9467 47.5007 34.43C47.5007 33.3966 47.5813 32.3904 47.635 31.357C47.6618 30.8947 47.7424 30.4596 47.7693 29.9973C47.823 29.4534 47.823 28.8823 47.8498 28.3384C47.8767 27.8217 47.8767 27.2778 47.9572 26.7339C47.9841 26.5435 48.0378 26.3531 48.0915 26.1628C48.1452 25.8908 48.1452 25.6189 48.2258 25.3469C48.3869 24.8846 48.548 24.4495 48.6554 23.9872C48.7897 23.4977 48.9508 23.0354 49.0851 22.5459C49.3536 21.6212 49.9175 20.8598 50.2129 19.9624C50.3471 19.5816 50.4814 19.2009 50.5351 18.793C50.5888 18.2763 50.6425 17.7868 50.7231 17.2701C50.8305 16.3183 50.9648 15.3664 50.9648 14.4146C50.9648 13.9523 51.0185 13.4628 50.9379 13.0005C50.8574 12.511 50.6694 12.0487 50.5351 11.5592C50.2934 10.5801 50.0786 9.54674 50.1055 8.56773C50.1323 7.6975 50.3203 6.82726 50.4814 5.98422C50.6425 5.27716 50.7768 4.5429 51.0185 3.86302C51.1259 3.56388 51.2601 3.26474 51.3944 2.9656C51.5555 2.55767 51.7972 1.85061 52.3074 1.74183C52.4685 1.71463 52.7371 1.71463 52.8713 1.85061C52.9787 1.95939 53.0056 2.17695 53.0593 2.31292C53.2204 2.80243 53.1667 3.26474 53.2473 3.75424C53.3278 4.35253 53.4084 4.95082 53.4889 5.54911C53.5964 6.33776 53.8112 7.09921 54.026 7.86067C54.1603 8.32298 54.2677 8.78529 54.3482 9.2476C54.4288 9.70991 54.4825 10.1994 54.5899 10.6617C54.6973 11.0968 54.8316 11.532 54.8584 11.9943C54.8853 12.511 54.9658 13.0005 55.0196 13.5172C55.1001 14.5234 55.0733 15.5024 55.0733 16.5086C55.0733 16.9981 55.0464 17.4876 55.0733 18.0043C55.1001 18.4666 55.2344 18.8746 55.3418 19.3369C55.7983 21.2949 55.6372 23.3345 55.9863 25.2925C56.1474 26.2716 56.4696 27.2234 56.6845 28.1752C56.9261 29.1814 57.0067 30.1876 57.2215 31.1938C57.5169 32.608 57.9197 33.9949 58.3493 35.3818C58.4299 35.6538 58.5105 35.8985 58.5642 36.1705C58.591 36.2793 58.591 36.388 58.6179 36.4696C58.6179 36.4968 58.6179 36.5784 58.6179 36.6056C58.6447 36.6872 58.4836 36.66 58.6716 36.6056C58.7253 36.6056 58.779 36.6056 58.8058 36.6056C58.5373 36.3608 58.4836 35.9801 58.3493 35.6538C58.1882 35.2187 58.0271 34.8107 57.9197 34.3756C57.7317 33.5326 57.6243 32.6623 57.5169 31.8193C57.3021 30.0788 57.1141 28.3384 57.0604 26.5707C57.0335 25.7005 57.0067 24.803 57.0335 23.9328C57.0604 23.0626 57.1947 22.1923 57.2484 21.3221C57.2752 20.4247 57.2484 19.5272 57.2484 18.6298C57.2484 17.7324 57.2484 16.8078 57.2484 15.9103C57.2484 15.0129 57.3289 14.1155 57.2484 13.218C57.1678 12.4022 56.953 11.5864 56.765 10.7977C56.3891 9.30199 56.1474 7.77908 56.0937 6.22898C56.0668 5.5763 56.0937 4.92362 56.1205 4.27095C56.1742 3.56388 56.3354 2.91121 56.4696 2.23134C56.577 1.63305 56.577 0.980373 56.1742 0.490866C55.7446 -0.0258356 55.2344 -0.134614 54.6168 0.164529C54.1334 0.409282 53.5963 0.762816 53.2741 1.19793C53.113 1.44269 53.0593 1.71463 53.0593 2.01378C53.0593 2.44889 53.0324 2.85682 52.9787 3.29193C52.925 3.89022 52.9519 4.48851 52.9519 5.08679C52.9519 5.65788 52.9519 6.22898 52.9519 6.77287C52.9519 7.64311 53.0324 8.48614 53.113 9.32918C53.1936 10.2266 53.2473 11.124 53.3278 11.9943C53.5158 13.7619 53.7843 15.5024 54.1334 17.2157C54.4825 18.9833 54.9122 20.7238 55.3418 22.4643C55.7715 24.2048 56.1474 25.9724 56.4696 27.7401C56.8187 29.4805 57.0872 31.2482 57.4632 33.0159C57.6243 33.7773 57.9734 34.4572 58.2956 35.1643C58.591 35.8169 58.8595 36.66 59.3698 37.2039C59.88 37.7478 60.605 38.1285 61.2495 38.482C62.0013 38.89 62.7532 39.2707 63.4782 39.7058C64.982 40.6032 66.4858 41.5007 68.0164 42.3709C68.7414 42.806 69.4665 43.2411 70.1646 43.7306C70.8091 44.1658 71.4804 44.5465 72.2055 44.8728C72.9573 45.1992 73.7092 45.3895 74.4611 45.7159C75.1861 46.0422 75.9112 46.3413 76.663 46.5589C76.9584 46.6405 77.2538 46.7493 77.5492 46.8308C77.764 46.8852 78.1668 46.9668 78.1668 47.266C78.1937 47.2116 78.2205 47.1844 78.2474 47.13C77.8714 47.4291 77.1733 47.3476 76.7436 47.266C76.1528 47.1572 75.5889 46.8852 75.0519 46.6405C73.924 46.151 72.8768 45.5255 71.8295 44.9272C70.7285 44.3017 69.7081 43.6219 68.7414 42.8332C67.7747 42.0718 66.8886 41.2287 65.9219 40.4401C64.982 39.6786 63.9884 38.9987 62.968 38.3733C61.9745 37.7206 60.9272 37.1495 59.7994 36.796C58.6179 36.4424 57.3826 36.3336 56.1742 36.0617C54.939 35.7626 53.6769 35.409 52.4685 35.0555C51.2333 34.702 50.0249 34.294 48.8971 33.6958C47.7961 33.1247 46.7757 32.4176 45.7553 31.6833C44.3589 30.6771 42.882 29.6437 41.1903 29.263C40.5189 29.0998 39.7671 29.0454 39.1226 29.3718C38.4244 29.7253 37.9948 30.4324 38.1559 31.221C38.317 32.0369 38.8809 32.7439 39.4448 33.2878C40.0893 33.9405 40.7338 34.566 41.3245 35.3002C41.969 36.1161 42.5866 36.9591 43.1506 37.8294C43.6876 38.6452 44.0636 39.5698 44.708 40.3041C45.3256 41.0383 46.1044 41.5822 46.6951 42.3437C47.0979 42.8332 47.3933 43.3771 47.7424 43.8938C48.0378 44.3561 48.3332 44.9 48.7628 45.2535C48.9508 45.4167 49.085 45.5527 49.2462 45.7159C49.3536 45.8518 49.461 45.9334 49.649 45.9334C49.7832 45.9334 49.998 45.7159 49.7832 45.6887C49.5953 45.6615 49.3267 45.2807 49.1656 45.1448C48.8971 44.9272 48.7091 44.6825 48.4943 44.3833C48.0915 43.7578 47.6887 43.1052 47.2591 42.5069C46.5877 41.555 45.6479 40.9296 44.9228 40.0321C44.5469 39.5698 44.2784 39.0803 43.983 38.5636C43.7145 38.0741 43.4191 37.6118 43.0968 37.1495C42.4255 36.1705 41.7273 35.2187 40.9217 34.3212C40.2504 33.587 39.4448 32.9615 38.9078 32.1185C38.6392 31.6833 38.3976 31.1938 38.4244 30.6771C38.4513 30.106 38.8272 29.6437 39.3374 29.4534C40.2504 29.127 41.3245 29.5349 42.157 29.8885C43.0163 30.242 43.8219 30.7315 44.5738 31.2482C45.7553 32.0913 46.91 32.9615 48.172 33.6686C49.4341 34.3756 50.7768 34.8379 52.1731 35.2459C53.5695 35.6538 54.9927 36.0889 56.4159 36.388C57.8391 36.6872 59.2892 36.8232 60.6318 37.4214C61.9208 37.9925 63.1023 38.8084 64.257 39.6242C65.4385 40.4401 66.4858 41.3919 67.5868 42.3165C68.6877 43.2411 69.8156 44.1386 71.0508 44.8456C72.286 45.5527 73.4944 46.2598 74.7833 46.858C75.7769 47.2932 76.9047 47.8099 78.0057 47.4835C78.3011 47.4019 78.7039 47.1572 78.3816 46.8308C78.0863 46.5589 77.4955 46.5045 77.1196 46.3685C75.7769 45.9606 74.5685 45.3351 73.2259 44.9C71.8832 44.4649 70.8091 43.7034 69.6276 42.942C68.3923 42.1533 67.1302 41.4191 65.8682 40.6576C64.6061 39.9234 63.3708 39.1347 62.055 38.482C61.4643 38.1829 60.8735 37.8566 60.3096 37.4758C60.0679 37.3127 59.7994 37.1223 59.5846 36.8775C59.3697 36.6056 59.2086 36.2793 59.0743 35.9529C58.779 35.3274 58.4836 34.7292 58.2151 34.1037C57.9197 33.4238 57.7586 32.7167 57.6243 31.9825C57.0604 28.991 56.5233 25.9724 55.8251 22.981C55.127 20.0711 54.4019 17.1885 53.9723 14.2243C53.7575 12.7285 53.6232 11.2056 53.4889 9.68272C53.3815 8.37737 53.2741 7.09921 53.2741 5.79386C53.2741 4.76045 53.2473 3.69986 53.3547 2.66645C53.3815 2.34011 53.3547 1.98658 53.3815 1.66024C53.4084 1.30671 53.6232 1.06196 53.8649 0.8444C54.0797 0.654036 54.3214 0.490866 54.5631 0.354892C54.9659 0.137333 55.3149 0.137334 55.664 0.463672C56.6576 1.3883 55.9057 2.74804 55.7983 3.86302C55.6909 4.92362 55.6909 6.01142 55.7715 7.07201C55.8789 8.43176 56.1205 9.7915 56.4696 11.124C56.6307 11.7767 56.7919 12.4566 56.8724 13.1365C56.9798 13.8435 56.8993 14.605 56.8993 15.3392C56.8993 16.8893 56.8724 18.4395 56.8993 20.0168C56.8993 20.7782 56.8993 21.5397 56.8187 22.3011C56.7382 23.0354 56.6844 23.7696 56.6576 24.5311C56.6307 27.4953 56.8993 30.4324 57.3289 33.3694C57.4363 33.9949 57.5438 34.6476 57.7586 35.273C57.866 35.5722 58.0002 35.8713 58.1076 36.1977C58.1882 36.4424 58.2688 36.66 58.4567 36.8232C58.4836 36.8503 58.5642 36.8232 58.591 36.8232C58.967 36.6872 58.8327 36.1977 58.779 35.8985C58.6716 35.409 58.5104 34.9467 58.3493 34.4844C58.0539 33.6414 57.866 32.7711 57.6512 31.9281C57.4095 30.9219 57.3021 29.9157 57.1141 28.9095C56.9261 27.8761 56.6039 26.8698 56.3622 25.8636C56.1205 24.8302 56.0668 23.7968 55.9863 22.7362C55.9325 21.7028 55.852 20.6966 55.664 19.6632C55.5835 19.2009 55.4492 18.7386 55.3687 18.2763C55.2881 17.7868 55.2881 17.2701 55.3149 16.7806C55.3149 15.72 55.3686 14.6594 55.2881 13.5988C55.2075 12.6198 55.127 11.6407 54.8853 10.6889C54.751 10.1994 54.6973 9.70991 54.6168 9.22041C54.5362 8.7309 54.4019 8.24139 54.2677 7.77908C54.0528 6.99043 53.838 6.17458 53.7306 5.35874C53.6501 4.73326 53.5427 4.13497 53.4889 3.50949C53.4352 3.01999 53.4352 2.58487 53.301 2.12256C53.2204 1.85061 53.1399 1.63305 52.8445 1.57866C52.1463 1.44268 51.6629 1.905 51.3407 2.47609C50.9916 3.12876 50.6962 3.89022 50.5083 4.62448C50.3203 5.33155 50.1592 6.03861 50.0249 6.74568C49.8369 7.69749 49.6758 8.7037 49.7832 9.68272C49.9175 10.7161 50.1592 11.7223 50.4545 12.7285C50.5888 13.218 50.6157 13.6804 50.6157 14.1971C50.6157 14.7138 50.6425 15.2305 50.5888 15.7472C50.5083 16.7806 50.2666 17.7868 50.2129 18.793C50.1592 19.7992 49.6758 20.7238 49.2193 21.6212C49.0045 22.0564 48.8434 22.4915 48.7091 22.9538C48.5748 23.4433 48.4137 23.9056 48.2795 24.3951C48.1721 24.8846 47.9304 25.3197 47.823 25.8092C47.7693 26.0268 47.7693 26.2716 47.7156 26.5163C47.6619 26.7611 47.6081 26.9786 47.5813 27.2234C47.447 28.284 47.5276 29.3718 47.4202 30.4324C47.3128 31.4658 47.2054 32.4992 47.1785 33.5598C47.1516 34.5932 47.1516 35.6538 47.1785 36.7144C47.1785 37.2039 47.2859 37.6934 47.2859 38.1557C47.2859 38.6996 47.3128 39.2435 47.3665 39.7874C47.447 40.7936 47.6887 41.7182 48.0109 42.67C48.3332 43.6219 48.6285 44.5193 49.1119 45.3895C49.5953 46.2598 50.0518 47.13 50.6425 47.9186C50.9111 48.2722 51.2333 48.5985 51.5555 48.9248C51.9046 49.2784 52.2 49.6319 52.5491 49.9583C53.2741 50.6653 54.0529 51.318 54.8584 51.9163C55.664 52.5146 56.5233 52.9769 57.4095 53.412C58.3225 53.8743 59.2355 54.3366 60.0948 54.9077C60.9541 55.4788 61.8134 56.0227 62.6726 56.5666C63.5319 57.1377 64.3912 57.7088 65.2505 58.3071C66.083 58.8782 66.9423 59.422 67.721 60.0747C68.5535 60.7274 69.3859 61.3801 70.1915 62.06C70.9702 62.7126 71.7221 63.3653 72.5546 63.9364C72.9573 64.2083 73.3064 64.4803 73.6555 64.8066C74.0046 65.133 74.3269 65.4593 74.6759 65.7584C74.8102 65.7041 75.0787 65.5137 74.9713 65.4049Z" stroke="#DE968D" mask="url(#path-3-outside-3_5114_2243)"/>
<path d="M50.3386 19.6891C50.3662 19.6911 50.4015 19.6951 50.4353 19.7018C50.4521 19.7051 50.4749 19.7105 50.4988 19.7194C50.5178 19.7264 50.5637 19.7447 50.6052 19.7867C50.6395 19.8215 50.7213 19.9322 50.6589 20.0729C50.6158 20.17 50.5302 20.2033 50.5173 20.2086C50.4709 20.2278 50.423 20.2333 50.406 20.235C50.3585 20.2398 50.3064 20.2399 50.2937 20.2399C50.2927 20.2399 50.2908 20.2397 50.2878 20.2399C50.2808 20.2404 50.2734 20.2408 50.2615 20.2418C50.2408 20.2435 50.2087 20.2467 50.1755 20.2467C50.1448 20.2467 50.0958 20.2443 50.0447 20.2291C50.0031 20.2168 49.9372 20.1862 49.8865 20.1198C49.8788 20.1102 49.8711 20.0983 49.863 20.0846C49.8608 20.0805 49.8564 20.0772 49.8542 20.0729L49.8562 20.0719C49.8283 20.0186 49.8067 19.9421 49.8464 19.8522C49.8897 19.7546 49.9766 19.7206 49.989 19.7155C50.0355 19.6963 50.0836 19.6918 50.1003 19.6901C50.1482 19.6852 50.2004 19.6852 50.2126 19.6852C50.2265 19.6852 50.2819 19.685 50.3386 19.6891ZM50.2937 19.9899L50.2126 19.9938C50.2026 19.9944 50.1925 19.9956 50.1824 19.9957C50.1842 20.0124 50.188 20.0289 50.1931 20.0446C50.2072 20.0878 50.2298 20.1173 50.2449 20.1334C50.2635 20.1164 50.288 20.0915 50.3044 20.0543C50.314 20.0327 50.319 20.0102 50.322 19.9879C50.3096 19.9882 50.2994 19.9899 50.2937 19.9899ZM50.2566 19.7936C50.2388 19.8106 50.2173 19.835 50.2019 19.8698C50.1925 19.891 50.1874 19.9132 50.1843 19.9352C50.1968 19.9349 50.207 19.9352 50.2126 19.9352C50.2263 19.9352 50.2751 19.9345 50.323 19.9381C50.3216 19.9184 50.3192 19.8989 50.3132 19.8805C50.3073 19.8624 50.2975 19.8479 50.2898 19.8346C50.2793 19.8178 50.2684 19.8045 50.2566 19.7936Z" fill="#DE968D" stroke="#DE968D" stroke-width="0.5"/>
<path d="M58.0161 6.53552L58.1929 6.55212L58.2017 6.5531L58.2114 6.55505C58.3163 6.57627 58.5494 6.61245 58.7202 6.7699L58.7212 6.76892C58.7225 6.77 58.7238 6.77174 58.7251 6.77283C58.7293 6.77676 58.7337 6.78046 58.7378 6.78455C58.8302 6.86425 58.8916 6.95578 58.936 7.03455C58.9593 7.07572 58.981 7.1175 58.9985 7.15173C59.0171 7.18796 59.0327 7.21708 59.0483 7.24353H59.0474C59.1622 7.43044 59.2427 7.63371 59.2886 7.84119L59.3228 8.05115L59.3237 8.05603C59.3514 8.36387 59.3511 8.64333 59.3511 8.93689L59.3657 9.14685C59.3859 9.35529 59.4208 9.5619 59.4585 9.77576C59.508 10.0567 59.5643 10.3544 59.5923 10.6664C59.6222 10.9993 59.6179 11.2827 59.6694 11.5697C59.6941 11.7069 59.7312 11.8461 59.772 11.9974C59.8117 12.1451 59.8552 12.3053 59.8843 12.4672C59.9922 13.0685 60.073 13.6957 60.1528 14.3158C60.2116 14.6429 60.232 14.902 60.3081 15.1869L60.5474 15.9955L60.686 16.4193C60.8006 16.7738 60.908 17.1322 60.9771 17.5013L61.0142 17.725V17.7279C61.0974 18.3742 61.0435 19.0395 61.0435 19.6361C61.0435 19.903 61.0441 20.2275 60.9849 20.5277C60.9253 20.8294 60.8078 21.1233 60.6685 21.4056L60.6636 21.4154C60.5148 21.6866 60.3722 21.8966 60.27 22.1293L60.2651 22.14C60.1362 22.4012 60.0322 22.6637 59.9243 22.9369L59.9185 22.9515L59.9116 22.9652C59.7763 23.2118 59.6491 23.4435 59.5483 23.6986L59.5444 23.7084L59.5405 23.7172C59.4123 23.9768 59.3112 24.2591 59.1997 24.5414L59.1948 24.5531C59.0376 24.8981 58.9057 25.2444 58.771 25.599L58.7671 25.6097C58.5826 26.0369 58.4233 26.4656 58.2632 26.9252L58.2622 26.9271C58.0474 27.5254 57.8388 28.1057 57.7085 28.7094C57.6947 28.817 57.6752 28.9403 57.6606 29.0404C57.6443 29.1529 57.6324 29.254 57.6323 29.3441C57.6323 29.3768 57.6333 29.4018 57.6343 29.4222C57.6493 29.4331 57.6636 29.4448 57.6763 29.4584C57.7246 29.5102 57.7457 29.5701 57.7534 29.6166C57.7608 29.6616 57.7596 29.7179 57.7378 29.7748C57.7247 29.8088 57.6866 29.8776 57.6118 29.9174C57.5411 29.9658 57.4664 29.9849 57.4175 29.9926C57.3516 30.0028 57.2853 30.0023 57.2485 30.0023C57.1849 30.0023 57.1163 29.9878 57.0552 29.9603C57.0048 29.9376 56.936 29.8939 56.8862 29.8187C56.8826 29.8138 56.8799 29.8082 56.8765 29.8031C56.8723 29.7959 56.8666 29.7893 56.8628 29.7816L56.8638 29.7806C56.7973 29.6684 56.784 29.5404 56.7808 29.4594C56.7787 29.4079 56.7795 29.3571 56.7808 29.3148C56.7822 29.2691 56.7837 29.2372 56.7837 29.2084V29.1947L56.7847 29.181C56.8132 28.9208 56.8702 28.6626 56.9233 28.4203L56.9263 28.4095L57.0591 27.9525C57.1998 27.4963 57.3623 27.0424 57.5229 26.5951L57.5259 26.5873C57.6064 26.3834 57.6876 26.1798 57.7681 25.976C57.8486 25.772 57.9287 25.5676 58.0093 25.3636C58.0892 25.1612 58.1698 24.9516 58.2505 24.7406C58.3309 24.5302 58.4116 24.318 58.4927 24.1127C58.6033 23.8325 58.7278 23.5672 58.8481 23.3099C58.9694 23.0506 59.0868 22.7991 59.1909 22.5355L59.1948 22.5267C59.2892 22.3115 59.3866 22.0286 59.5269 21.7728C59.5963 21.6463 59.6773 21.5173 59.7417 21.4086C59.8097 21.2938 59.87 21.1846 59.9165 21.0668L59.9194 21.058C60.0182 20.8327 60.0942 20.5788 60.145 20.3217C60.1924 20.0531 60.1675 19.7727 60.1675 19.4457C60.1675 18.8177 60.2198 18.2638 60.1177 17.6947L60.1157 17.6859C60.0385 17.1388 59.8386 16.6677 59.6675 16.0902C59.5875 15.8203 59.5031 15.5367 59.4468 15.2513L59.4458 15.2474C59.3936 14.9569 59.3384 14.674 59.3101 14.3646L59.1958 13.4447C59.1563 13.1476 59.1108 12.8574 59.0454 12.5658L59.0435 12.5551C59.0188 12.4179 58.9817 12.2787 58.9409 12.1273C58.9011 11.9796 58.8577 11.8195 58.8286 11.6576C58.7727 11.3459 58.7687 11.0064 58.7446 10.7386C58.719 10.4533 58.6685 10.1949 58.6138 9.89001V9.88904C58.559 9.6097 58.5314 9.30621 58.5298 9.02771L58.5171 8.80505C58.5153 8.73252 58.5161 8.66202 58.5161 8.59509C58.5161 8.4571 58.5154 8.33299 58.5034 8.2113C58.4806 7.98013 58.4127 7.79226 58.3101 7.55798C58.2188 7.40133 58.1965 7.33635 58.1147 7.26892C58.071 7.23767 57.9779 7.21326 57.8657 7.21326C57.6419 7.21324 57.4553 7.20012 57.2788 7.22693C57.1146 7.25193 57.0115 7.30612 56.9448 7.40369C56.7275 7.73721 56.7192 8.19707 56.7192 8.67615C56.7192 8.82791 56.6219 8.92356 56.5571 8.96814C56.4888 9.01513 56.4104 9.04096 56.3433 9.05408C56.2778 9.06682 56.195 9.07257 56.1157 9.0531C56.076 9.0433 56.0182 9.02314 55.9673 8.97693C55.9097 8.92465 55.8706 8.84766 55.8706 8.75818C55.8706 8.51485 55.8704 8.28409 55.8989 8.0238C55.9561 7.50288 56.1656 6.92159 56.7495 6.6781L56.7573 6.67517C57.0041 6.58151 57.2715 6.5525 57.5005 6.55115C57.6723 6.5303 57.8442 6.52464 58.0161 6.53552ZM57.3999 29.7396L57.3521 29.8334C57.3599 29.8384 57.368 29.8431 57.3765 29.847C57.3836 29.8488 57.3944 29.8515 57.4077 29.8529C57.4101 29.8531 57.4191 29.8529 57.4321 29.8529C57.4321 29.8322 57.4321 29.789 57.4321 29.7318C57.4219 29.7354 57.411 29.7372 57.3999 29.7396ZM57.4663 29.851C57.4736 29.85 57.4816 29.8499 57.4897 29.848V29.7562L57.4663 29.851ZM57.5737 29.4027L57.5005 29.7084L57.5894 29.7953C57.6156 29.7737 57.6437 29.7462 57.6616 29.7054C57.6915 29.6371 57.6831 29.574 57.6724 29.5365C57.6694 29.5263 57.6634 29.518 57.6597 29.5092V29.5541C57.6596 29.5516 57.6588 29.5487 57.6587 29.5463C57.6584 29.5412 57.6584 29.5358 57.6577 29.5306C57.6563 29.5202 57.6538 29.5098 57.6509 29.4994C57.6463 29.4833 57.6388 29.4689 57.6313 29.4554C57.6213 29.4421 57.6135 29.4337 57.6108 29.431C57.5984 29.4184 57.5848 29.4102 57.5737 29.4027Z" fill="#DE968D" stroke="#DE968D" stroke-width="0.5"/>
</svg>
